<?xml version="1.0" encoding="UTF-8" standalone="no"?>
<!-- Created with Inkscape (http://www.inkscape.org/) -->

<svg
   width="210mm"
   height="297mm"
   viewBox="0 0 210 297"
   version="1.1"
   id="svg351"
   xml:space="preserve"
   inkscape:version="1.2.1 (9c6d41e410, 2022-07-14)"
   sodipodi:docname="big_trees_bottom_side.svg"
   xmlns:inkscape="http://www.inkscape.org/namespaces/inkscape"
   xmlns:sodipodi="http://sodipodi.sourceforge.net/DTD/sodipodi-0.dtd"
   xmlns="http://www.w3.org/2000/svg"
   xmlns:svg="http://www.w3.org/2000/svg"><sodipodi:namedview
     id="namedview353"
     pagecolor="#ffffff"
     bordercolor="#000000"
     borderopacity="0.25"
     inkscape:showpageshadow="2"
     inkscape:pageopacity="0.0"
     inkscape:pagecheckerboard="0"
     inkscape:deskcolor="#d1d1d1"
     inkscape:document-units="mm"
     showgrid="false"
     inkscape:zoom="67.487985"
     inkscape:cx="636.58739"
     inkscape:cy="292.22979"
     inkscape:window-width="1920"
     inkscape:window-height="1017"
     inkscape:window-x="-8"
     inkscape:window-y="-8"
     inkscape:window-maximized="1"
     inkscape:current-layer="g521" /><defs
     id="defs348"><marker
       id="DistanceX"
       orient="auto"
       refX="0.0"
       refY="0.0"
       style="overflow:visible"><path
         d="M 3,-3 L -3,3 M 0,-5 L  0,5"
         style="stroke:#000000; stroke-width:0.5"
         id="path474" /></marker><pattern
       id="Hatch"
       patternUnits="userSpaceOnUse"
       width="8"
       height="8"
       x="0"
       y="0"><path
         d="M8 4 l-4,4"
         stroke="#000000"
         stroke-width="0.25"
         linecap="square"
         id="path477" /><path
         d="M6 2 l-4,4"
         stroke="#000000"
         stroke-width="0.25"
         linecap="square"
         id="path479" /><path
         d="M4 0 l-4,4"
         stroke="#000000"
         stroke-width="0.25"
         linecap="square"
         id="path481" /></pattern><symbol
       id="*Model_Space" /><symbol
       id="*Paper_Space" /><symbol
       id="*Paper_Space0" /></defs><g
     inkscape:label="Layer 1"
     inkscape:groupmode="layer"
     id="layer1"><g
       inkscape:label="0"
       id="g521"
       transform="matrix(0.26458333,0,0,0.26458333,29.419348,-217.49346)"
       style="stroke-width:0.37795276;stroke-dasharray:none"><path
         style="fill:none;stroke:#000000;stroke-width:0.37795276;stroke-linecap:round;stroke-dasharray:none"
         d="M 0,1122.52 H 13.2283"
         id="path489" /><path
         style="fill:none;stroke:#000000;stroke-width:0.42997;stroke-linecap:round;stroke-dasharray:none"
         d="M 13.2283,1122.4642 V 1110.234"
         id="path491" /><path
         style="fill:none;stroke:#000000;stroke-width:0.377953;stroke-linecap:round;stroke-dasharray:none"
         d="M 13.2283,1110.2354 H 523.465"
         id="path493" /><path
         style="fill:none;stroke:#000000;stroke-width:0.430187;stroke-linecap:round;stroke-dasharray:none"
         d="m 523.465,1110.2216 v 12.2426"
         id="path495" /><path
         style="fill:none;stroke:#000000;stroke-width:0.37795276;stroke-linecap:round;stroke-dasharray:none"
         d="m 523.465,1122.52 h 13.228"
         id="path497" /><path
         style="fill:none;stroke:#000000;stroke-width:0.37795276;stroke-linecap:round;stroke-dasharray:none"
         d="M 536.693,1383.31 H 0"
         id="path499" /><path
         style="fill:none;stroke:#000000;stroke-width:0.239828;stroke-linecap:round;stroke-dasharray:none"
         d="M 18.786894,1326.61 H 219.66816"
         id="path501" /><path
         style="vector-effect:non-scaling-stroke;fill:none;stroke:#000000;stroke-width:0.260311;stroke-linecap:round;stroke-dasharray:none"
         d="M 517.80623,1326.6135 H 281.14686"
         id="path501-4" /><path
         style="fill:none;stroke:#000000;stroke-width:0.37795276;stroke-linecap:round;stroke-dasharray:none"
         d="M 517.795,1326.61 V 1135.75"
         id="path503" /><path
         style="fill:none;stroke:#000000;stroke-width:0.37795276;stroke-linecap:round;stroke-dasharray:none"
         d="M 517.795,1135.75 H 18.8976"
         id="path505" /><path
         style="fill:none;stroke:#000000;stroke-width:0.37795276;stroke-linecap:round;stroke-dasharray:none"
         d="m 18.8976,1135.75 v 190.86"
         id="path507" /><path
         style="fill:none;stroke:#000000;stroke-width:0.37795276;stroke-linecap:round;stroke-dasharray:none"
         d="M 0,1383.31 V 1122.52"
         id="path509" /><path
         style="fill:none;stroke:#000000;stroke-width:0.37795276;stroke-linecap:round;stroke-dasharray:none"
         d="m 536.693,1122.52 v 260.79"
         id="path511" /><path
         stroke="#000000"
         fill="none"
         d="m 268.46737,1182.3439 c -4.97759,0.7599 -7.61099,1.5211 -7.61099,2.2009 0,0.4222 -0.38055,0.7685 -0.84569,0.7685 -0.94772,0 -1.15292,1.435 -0.28188,1.9732 0.86821,0.5367 0.67821,1.2589 -0.65962,2.5053 -0.97196,0.9056 -1.72685,1.0794 -3.67359,0.8459 -1.71954,-0.2063 -2.51615,-0.077 -2.66893,0.4324 -0.75263,2.5009 -0.92122,2.7467 -1.59155,2.3166 -0.95334,-0.6118 -3.24568,-0.6347 -3.24568,-0.032 0,0.2651 -0.27118,0.3146 -0.6021,0.1088 -0.33151,-0.2048 -0.47414,-0.7065 -0.31743,-1.1141 0.30671,-0.7994 -0.76955,-1.3993 -2.50937,-1.3993 -0.59477,0 -1.08132,-0.3383 -1.08132,-0.7516 0,-0.4136 -0.31685,-0.7914 -0.70473,-0.8407 -3.24454,-0.4081 -3.53432,-0.5405 -3.70404,-1.6934 -0.20745,-1.4129 -0.96009,-1.6119 -1.43312,-0.3789 -0.17815,0.4652 -0.57785,0.8456 -0.88794,0.8456 -0.31009,0 -0.41776,-0.3804 -0.23961,-0.8456 0.1787,-0.4651 0.0711,-0.8458 -0.23904,-0.8458 -0.31008,0 -0.71602,0.3971 -0.90205,0.8814 -0.18604,0.4848 -0.59367,0.7239 -0.90601,0.5303 -0.31232,-0.1925 -0.56771,-0.051 -0.56771,0.3154 0,0.482 -0.24525,0.4621 -0.88851,-0.071 -0.70022,-0.5812 -0.98041,-0.5895 -1.31924,-0.04 -0.23678,0.3833 -0.97872,0.7379 -1.64851,0.7886 -0.66975,0.051 -1.21774,0.3186 -1.21774,0.5959 0,0.2772 -0.3738,0.3609 -0.83102,0.1856 -0.45779,-0.1761 -1.08246,0.1129 -1.39196,0.6444 l -0.56153,0.9628 -0.0794,-0.8457 c -0.0439,-0.4649 -0.0333,-1.4162 0.0232,-2.1141 0.0665,-0.8207 -0.20972,-1.2686 -0.78309,-1.2686 -0.82649,0 -1.09147,0.7703 -0.9697,2.819 0.0309,0.5187 -0.0658,0.5852 -0.25146,0.1726 -0.41831,-0.9331 -1.91627,-0.257 -1.93826,0.8743 l -0.018,0.9265 -0.75153,-0.9907 c -0.97196,-1.2804 -5.35927,-1.7815 -5.78888,-0.6613 -0.22044,0.5744 -0.57901,0.637 -1.33559,0.2323 -1.68571,-0.9021 -2.27541,-0.6501 -2.00254,0.8557 l 0.25539,1.409 -1.08979,-0.5829 c -0.86597,-0.4636 -1.09035,-0.3987 -1.09035,0.315 0,0.4945 -0.2537,0.7421 -0.56379,0.5502 -0.31006,-0.1915 -0.56376,-0.1074 -0.56376,0.1884 0,0.2954 -0.41663,0.6962 -0.92517,0.8919 l -0.92572,0.3552 0.7239,-0.8722 c 0.39802,-0.4798 0.56094,-1.035 0.36193,-1.2347 -0.19958,-0.199 -0.36251,-0.051 -0.36251,0.3288 0,0.38 -0.25368,0.5345 -0.56376,0.3426 -0.51473,-0.3178 -0.78254,0.5791 -0.71545,2.3961 0.0148,0.388 -0.26273,0.7053 -0.61565,0.7053 -0.87949,0 -4.05863,2.8178 -3.88386,3.4418 0.0771,0.2775 -0.11271,0.504 -0.42284,0.504 -0.31008,0 -0.56379,0.6682 -0.56379,1.4852 0,0.9206 -0.58914,1.9913 -1.5504,2.8177 -1.63213,1.4038 -2.73488,1.7759 -2.06906,0.698 0.2413,-0.3901 0.0903,-0.5266 -0.38956,-0.3523 -0.43073,0.1566 -0.72278,0.5609 -0.64889,0.8986 0.0739,0.3376 -0.2058,0.4836 -0.62131,0.3242 -0.45891,-0.176 -0.65172,-0.8322 -0.49107,-1.6711 0.1528,-0.7989 -0.001,-1.3812 -0.3653,-1.3812 -0.34674,0 -0.62976,0.4718 -0.62976,1.0493 v 1.0484 l -2.01889,-0.1601 -2.01945,-0.1601 -1.35814,2.9171 c -0.74702,1.6039 -1.36942,2.6626 -1.38351,2.3526 -0.0145,-0.3101 -0.40253,0.071 -0.86372,0.8456 l -0.83832,1.4095 0.0778,-1.1277 c 0.13871,-2.0205 -0.0326,-2.2545 -1.70094,-2.313 -1.15856,-0.04 -1.72685,0.2518 -1.91909,0.9861 -0.14998,0.5744 -0.0543,1.1793 0.2131,1.3445 0.78928,0.4878 -0.0134,1.8256 -1.04864,1.7467 -0.58687,-0.046 -1.02156,0.4136 -1.13262,1.1957 -0.11271,0.7931 -0.57111,1.2685 -1.22284,1.2685 -1.66316,0 -2.82565,0.6185 -2.82565,1.5031 0,0.4504 -0.25371,0.6618 -0.56379,0.4701 -0.31007,-0.1917 -0.56378,-0.1115 -0.56378,0.1781 0,0.2899 -0.77801,0.6823 -1.72853,0.8721 -1.07739,0.2155 -1.58198,0.5836 -1.33899,0.9766 0.27005,0.4369 -0.022,0.503 -0.9494,0.2137 l -1.33897,-0.4172 1.07398,1.2027 1.07401,1.2022 h -0.93306 c -1.09938,0 -1.20198,0.6333 -0.25651,1.5787 0.526,0.5261 0.43241,0.6869 -0.42282,0.7211 -0.60495,0.026 -0.79663,0.1674 -0.42624,0.3186 0.36984,0.1505 0.53334,0.6376 0.36252,1.083 -0.17083,0.4448 -0.0388,0.809 0.29372,0.809 0.33208,0 0.87274,0.5018 1.20087,1.1145 0.4758,0.8897 0.43466,1.0533 -0.20523,0.8074 -1.50305,-0.5767 -1.56337,0.9161 -0.10653,2.6475 1.31814,1.5667 1.52447,3.223 0.30784,2.4712 -0.8716,-0.5386 -1.7821,1.8642 -1.15237,3.0408 0.67935,1.2697 2.12262,1.9221 2.58774,1.1693 0.18325,-0.2965 0.60325,-0.5388 0.93251,-0.5388 0.37828,0 0.3405,0.3121 -0.10209,0.8456 -0.62972,0.7588 -0.41098,1.071 0.65118,0.9302 0.99902,-0.133 0.83157,1.5301 -0.18098,1.7946 -1.31528,0.3438 -2.72528,-0.077 -2.72528,-0.8119 0,-0.2769 -0.38057,-0.5035 -0.8457,-0.5035 -0.46511,0 -0.84566,0.2261 -0.84566,0.5018 0,0.2762 -1.1608,0.4421 -2.57986,0.3691 l -2.57984,-0.133 0.28696,1.0993 0.28751,1.0989 -1.37166,-0.2622 c -0.75489,-0.1446 -1.37223,-0.067 -1.37223,0.1703 0,0.2378 -0.50742,0.2998 -1.12756,0.1386 -1.49796,-0.3917 -1.4585,0.7832 0.0423,1.2595 1.03735,0.3293 1.06837,1.0313 0.0519,1.1625 -1.8791,0.2436 -3.19212,1.9249 -1.5036,1.9249 0.92967,0 1.16871,1.9889 0.30332,2.5239 -0.5091,0.3141 -0.41045,2.2726 0.31289,6.2146 l 0.31064,1.6911 -1.93038,0.5946 c -1.50361,0.4633 -2.19761,0.4169 -3.14137,-0.21 -0.82539,-0.5479 -1.211,-0.597 -1.211,-0.1538 0,0.3845 -0.75716,0.5992 -1.85371,0.5254 -1.01931,-0.068 -2.21679,0.099 -2.66047,0.3745 -0.44426,0.2739 -1.65244,0.518 -2.68528,0.5423 -1.76521,0.04 -3.1831,1.1567 -2.62213,2.0633 0.46116,0.7472 -1.05821,3.3112 -1.9676,3.3196 l -0.89583,0.015 0.81352,0.5148 0.81355,0.5146 -0.68558,1.5048 c -0.44086,0.9678 -0.98321,1.3914 -1.51825,1.1854 -0.50121,-0.192 -0.83269,0.015 -0.83269,0.5086 0,0.4557 0.39857,0.8282 0.88569,0.8282 1.26005,0 2.66498,1.5679 2.28781,2.5517 -0.1759,0.4572 -0.0649,0.831 0.24693,0.831 0.37209,0 0.36647,0.3727 -0.0181,1.0904 -1.17153,2.1899 -0.49893,3.1037 1.67161,2.2705 0.8716,-0.3344 2.07359,-0.207 2.7862,0.2947 0.60154,0.4239 0.70302,0.3896 0.38957,-0.1317 -0.23792,-0.3958 -0.14715,-0.7045 0.20691,-0.7045 0.34671,0 0.52882,-0.1906 0.40479,-0.4229 -0.12452,-0.2323 0.22157,-0.8474 0.76842,-1.366 l 0.99451,-0.9428 0.33265,0.8665 c 0.22324,0.5812 0.80787,0.7752 1.77758,0.5898 0.94489,-0.1805 1.25384,-0.083 0.89246,0.2768 -0.36139,0.3614 -0.2678,1.2363 0.27118,2.5257 0.49443,1.1834 0.6771,2.6408 0.45666,3.6437 l -0.36702,1.6722 1.13318,0.296 c 0.62299,0.163 1.286,0.9066 1.47318,1.6525 0.18716,0.7463 0.58971,1.3563 0.89357,1.3563 0.79494,0 0.68217,-0.9814 -0.15164,-1.3179 -0.42115,-0.1698 -0.30726,-0.3023 0.28189,-0.3289 0.54235,-0.025 0.9866,-0.3973 0.9866,-0.8287 0,-1.1631 3.81565,-1.4945 4.25258,-0.3692 l 0.33828,0.8715 0.7267,-0.9865 c 0.39972,-0.543 1.0306,-0.9866 1.40212,-0.9866 0.38111,0 0.49896,-0.3073 0.27062,-0.7048 -0.22326,-0.3873 -0.1883,-0.5068 0.0767,-0.2654 0.48429,0.4407 0.64608,1.0559 1.03283,3.93 0.14437,1.0682 -0.0429,1.5504 -0.60098,1.5504 -0.57168,0 -0.69627,-0.3558 -0.42453,-1.2129 l 0.38507,-1.213 -0.95675,0.3674 c -0.52655,0.2019 -1.06329,0.3672 -1.19293,0.3672 -0.12963,0 -0.23567,0.3804 -0.23567,0.8456 0,0.4652 0.26892,0.8457 0.59705,0.8457 0.3281,0 0.47187,0.2025 0.31908,0.4499 -0.15277,0.2476 -0.0689,0.7881 0.18661,1.202 0.60494,0.9785 4.29938,0.3387 4.74477,-0.8216 0.17535,-0.4566 0.91275,-0.8303 1.6389,-0.8303 0.72615,0 2.08542,-0.7487 3.02129,-1.6638 1.86556,-1.8237 4.15055,-2.1018 4.15055,-0.5044 0,0.5354 -0.24243,1.1239 -0.53898,1.3073 -0.29655,0.1832 -0.39688,0.7042 -0.22326,1.1574 0.17421,0.454 0.59423,0.6529 0.93364,0.4432 0.81802,-0.5058 3.18929,-0.5966 2.88935,-0.1115 -0.12963,0.2091 0.11271,0.5136 0.5384,0.6771 0.9776,0.3751 2.03862,-0.657 2.03862,-1.9828 0,-0.5582 0.44371,-1.0537 0.98663,-1.1006 0.54293,-0.047 1.36716,-0.129 1.83227,-0.1798 0.46511,-0.051 1.47993,0.203 2.25512,0.5656 1.89487,0.8855 6.55449,2.4722 9.19638,3.1317 1.18224,0.2949 2.68922,1.039 3.34884,1.6536 0.91219,0.8502 1.3091,0.9488 1.65639,0.4122 0.32022,-0.4951 0.58293,-0.5228 0.87948,-0.093 0.59761,0.8664 2.89276,1.3609 3.2953,0.7092 0.1866,-0.3017 0.685,-0.089 1.11909,0.4758 l 0.78197,1.0203 0.3642,-1.2961 0.3642,-1.2967 0.94208,1.0149 c 1.33221,1.4344 1.78773,2.8742 0.9945,3.1414 -0.50064,0.1686 -0.47471,0.4669 0.10021,1.1635 1.58196,1.9164 2.77434,0.7363 2.36224,-2.3362 -0.0547,-0.4053 0.23227,-0.6924 0.63763,-0.6377 1.56732,0.2103 2.25511,-0.065 1.97717,-0.791 -0.35968,-0.9369 0.0823,-1.5745 1.7325,-2.4985 l 1.28091,-0.7172 0.32134,0.8373 0.32137,0.8371 1.28653,-0.8433 1.28712,-0.843 0.2847,1.0903 c 0.15672,0.5992 0.86145,1.3989 1.56561,1.7756 l 1.28035,0.6855 -0.34277,-0.8937 c -0.18831,-0.491 -0.0998,-1.0429 0.19674,-1.2261 0.29655,-0.1833 0.53898,-0.065 0.53898,0.2638 0,0.3281 0.25369,0.597 0.56378,0.597 0.31008,0 0.56376,-0.4996 0.56376,-1.1101 0,-0.7278 0.27572,-1.0035 0.80172,-0.8022 0.44086,0.1691 1.36828,0 2.06117,-0.3665 l 1.25949,-0.6738 0.89865,1.1045 c 0.49443,0.6077 2.89501,1.9658 5.33505,3.0173 4.83384,2.0838 7.30658,4.4347 8.25711,7.8513 0.30218,1.0853 0.55025,6.3155 0.55193,11.6223 l 0.003,9.649 -1.06552,1.3549 c -0.58578,0.7446 -2.22469,1.933 -3.64088,2.6407 l -2.57591,1.2865 -10.16043,0.4312 c -9.12478,0.3874 -11.44076,0.6987 -10.6994,1.4388 m 61.69585,-0.3677 c 1.17492,-0.2206 -1.9405,-0.3402 -2.13727,-0.537 -0.34221,-0.342 0.37902,-0.094 -11.12037,-0.7618 -6.1717,-0.3581 -8.36084,-1.0407 -8.7414,-2.7271 -0.79943,-3.5377 -1.9704,-13.4369 -1.9704,-16.6533 v -3.7001 l 5.02326,-4.7983 c 3.51122,-3.354 5.22172,-5.4344 5.68175,-6.9121 0.36198,-1.163 0.88402,-2.1141 1.16028,-2.1141 0.27624,0 0.3563,-0.3805 0.17815,-0.8457 -0.20578,-0.5356 0.007,-0.8456 0.58124,-0.8456 0.4984,0 0.90995,-0.4437 0.91445,-0.9867 l 0.008,-0.9865 0.56547,0.8457 0.56602,0.8456 0.79099,-1.0339 0.79042,-1.0341 2.01777,0.9574 c 1.10953,0.5266 2.02114,1.3722 2.02564,1.8795 0.005,0.6381 0.1409,0.7144 0.43807,0.2476 0.28303,-0.4453 0.71207,-0.4961 1.2595,-0.15 1.26454,0.8001 2.24044,0.6449 2.24044,-0.3557 0,-0.494 0.48994,-1.0262 1.08866,-1.1827 0.59875,-0.1569 1.22509,-0.6406 1.3914,-1.0752 0.16689,-0.4341 0.65286,-0.79 1.07965,-0.79 0.42678,0 1.24313,-0.5164 1.81423,-1.147 0.57112,-0.6315 1.35308,-1.0267 1.73757,-0.8798 0.38449,0.1479 0.9917,-0.083 1.34913,-0.5146 0.35743,-0.4307 1.56334,-1.0847 2.67964,-1.4533 l 2.0296,-0.6698 1.02157,1.2622 1.02213,1.2617 0.3518,-0.9172 c 0.26723,-0.6953 0.53502,-0.7655 1.10726,-0.2904 0.4155,0.3446 1.03116,0.456 1.36829,0.2476 0.33714,-0.2087 1.00184,-0.057 1.4771,0.3382 0.58408,0.4841 0.98719,0.5255 1.24371,0.1263 0.77011,-1.1985 3.10642,-0.3868 4.42452,1.5369 0.72108,1.0525 1.31136,2.2382 1.31136,2.6346 0,0.3962 0.2537,0.7203 0.56377,0.7203 0.31009,0 0.0564,0.5076 -0.56377,1.1276 -0.62017,0.6202 -1.39648,1.1276 -1.7246,1.1276 -0.32811,0 -0.45102,0.2363 -0.27287,0.5247 0.17871,0.2888 0.0649,0.6859 -0.25257,0.8819 -0.79606,0.4916 -2.4265,-1.2453 -1.92699,-2.0532 0.23679,-0.3828 0.16011,-0.504 -0.18436,-0.2909 -0.65962,0.4075 -2.72419,-3.4295 -2.48289,-4.6157 0.0845,-0.4188 -0.0946,-0.6078 -0.39915,-0.4196 -0.30445,0.1879 -0.66019,0.15 -0.79098,-0.085 -0.13084,-0.2345 -0.16351,-0.1182 -0.0728,0.2604 0.3005,1.2501 -0.82198,1.326 -1.67162,0.1128 -0.63311,-0.9038 -1.06834,-1.0615 -1.8007,-0.6516 l -0.96519,0.5399 1.53124,0.3846 c 1.052,0.2639 1.43029,0.6482 1.20816,1.2279 -0.17929,0.4668 0.0481,0.9861 0.50909,1.163 0.45836,0.1755 0.6974,0.539 0.53109,0.8075 -0.39071,0.633 1.29669,3.9039 2.01438,3.9039 0.30218,0 0.54912,0.3684 0.54912,0.8177 0,0.4498 0.42113,1.0537 0.93586,1.3416 l 0.93589,0.5233 -1.17209,0.6276 c -0.71599,0.3833 -1.24484,0.4165 -1.3587,0.087 -0.10263,-0.2979 -0.49446,-0.3502 -0.86992,-0.1156 -1.0244,0.6365 -0.21818,2.9215 1.03116,2.9215 0.68553,0 1.06158,0.3992 1.06158,1.1276 0,0.6202 0.14379,1.1275 0.3191,1.1275 0.59762,0 2.78056,-1.2944 3.1566,-1.8724 0.24129,-0.3704 0.8547,-0.261 1.72404,0.3084 1.04635,0.6862 1.59436,0.7431 2.44398,0.2538 0.60211,-0.3467 1.85595,-0.6669 2.78619,-0.712 0.93023,-0.044 1.37449,0.032 0.98661,0.1714 -0.38731,0.1386 -0.70473,0.486 -0.70473,0.77 0,0.2847 0.31742,0.4538 0.70473,0.3761 0.38788,-0.077 0.62298,0.2396 0.52376,0.7047 -0.11956,0.5577 0.005,0.6533 0.36815,0.2819 0.30161,-0.3101 0.65229,-1.0711 0.77801,-1.6914 0.12627,-0.6201 0.5119,-1.0706 0.85751,-1.0005 0.37943,0.077 0.54855,-0.5036 0.42735,-1.4626 -0.15394,-1.2177 0.23733,-2.0025 1.67722,-3.36 1.47147,-1.3882 1.9473,-1.5907 2.19932,-0.9343 0.17701,0.4606 0.0755,0.8379 -0.2244,0.8379 -0.30049,0 -0.54629,0.4017 -0.54629,0.8923 0,0.4911 0.3174,0.7866 0.70472,0.657 0.38788,-0.1303 0.69121,-0.8914 0.67539,-1.6921 l -0.0298,-1.455 2.09331,0.094 c 1.59379,0.072 1.95575,0.261 1.516,0.7928 -0.31741,0.3839 -0.82765,0.5441 -1.1332,0.3545 -0.31402,-0.194 -0.28528,0.1631 0.0658,0.8193 0.39746,0.7419 1.0351,1.0835 1.76294,0.9432 0.62691,-0.1196 0.99169,0.02 0.81014,0.3146 -0.18154,0.2941 0.19224,0.5343 0.83045,0.5343 0.6382,0 1.16082,0.2538 1.16082,0.5638 0,0.3102 0.53672,0.5639 1.19351,0.5639 0.87952,0 1.12194,0.2717 0.92293,1.0335 -0.33489,1.2807 1.2651,1.4228 2.17111,0.1927 0.34898,-0.4735 1.02325,-0.6923 1.53234,-0.4967 0.50008,0.1917 1.05933,0.1061 1.24257,-0.1907 0.18323,-0.2964 -0.11122,-0.5388 -0.65341,-0.5388 h -0.98662 l 1.0943,-0.8277 c 0.60155,-0.4555 0.82874,-0.8361 0.50457,-0.8456 -0.32473,-0.015 -0.57843,-0.6973 -0.56377,-1.5279 0.0349,-2.0335 2.54208,-2.8268 3.90416,-1.2359 0.5029,0.5871 0.91389,1.3329 0.91389,1.6576 0,0.3253 0.2537,0.4341 0.56379,0.2426 0.31008,-0.1919 0.56376,-0.074 0.56376,0.2614 0,0.3609 0.55307,0.2475 1.35307,-0.2768 0.95674,-0.627 1.41735,-0.6941 1.57182,-0.2299 0.2041,0.6117 1.32885,0.8952 5.06894,1.2775 l 1.51092,0.1543 -0.54291,-1.0146 c -0.37942,-0.7087 -0.28923,-1.4822 0.29881,-2.5664 0.46341,-0.8536 0.85243,-1.2262 0.86484,-0.8276 0.0171,0.5491 0.29541,0.5785 1.15009,0.1209 0.62016,-0.332 1.13152,-0.4042 1.13603,-0.1607 0.005,0.2436 0.24017,0.077 0.52318,-0.3703 0.35292,-0.5577 0.21706,-1.0396 -0.43129,-1.533 -0.59704,-0.4538 -0.68613,-0.7257 -0.24132,-0.7368 1.09374,-0.03 0.83047,-1.14 -0.28187,-1.19 -0.58181,-0.027 -0.69907,-0.1608 -0.28641,-0.3277 0.48318,-0.1951 0.53618,-0.5897 0.16971,-1.2736 -0.67597,-1.264 -0.12748,-3.4284 0.86935,-3.4284 0.44594,0 0.62749,-0.3506 0.43806,-0.8457 -0.2227,-0.58 0.0337,-0.8457 0.81634,-0.8457 0.6275,0 1.2251,0.2464 1.32883,0.5475 0.32362,0.9422 3.0134,-0.8167 2.91813,-1.9088 l -0.088,-1.0137 1.63834,0.3282 c 1.85597,0.3709 2.02849,0.1007 0.75152,-1.1762 l -0.8874,-0.8874 0.74644,-0.473 c 0.53108,-0.3366 0.38056,-0.4758 -0.52205,-0.4821 -1.43876,-0.015 -1.70881,-1.0023 -0.40817,-1.5013 0.6771,-0.26 0.71768,-0.5012 0.19055,-1.1366 l -0.6692,-0.8067 -0.50967,0.7317 c -0.33655,0.4832 -0.38842,0.3004 -0.15277,-0.5372 0.20972,-0.7459 0.10881,-1.2687 -0.24527,-1.2687 -0.33092,0 -0.60152,0.3582 -0.60152,0.7963 0,0.4374 -0.37324,0.7407 -0.82932,0.6735 -1.31814,-0.1933 -1.67049,-0.8473 -0.66414,-1.2334 0.50796,-0.1952 0.7955,-0.561 0.63932,-0.8134 -0.15616,-0.2526 0.045,-0.7974 0.44651,-1.2095 0.85188,-0.875 1.13827,-3.2872 0.39014,-3.2872 -0.28075,0 -0.39465,-0.3169 -0.25257,-0.7049 0.14205,-0.3872 -0.0557,-1.3219 -0.44031,-2.0763 l -0.69909,-1.3717 -2.9356,0.055 c -1.6141,0.03 -3.14871,0.1867 -3.40917,0.348 -0.71656,0.4431 -1.63102,-0.3271 -2.07414,-1.7468 -0.28978,-0.9296 -0.16857,-1.2685 0.45498,-1.2685 0.46735,0 1.0272,0.2864 1.24312,0.6361 0.68105,1.1015 1.48782,-1.0441 0.84454,-2.2457 -0.64328,-1.2024 -0.28752,-1.831 0.80057,-1.4138 0.4031,0.155 0.90091,0.015 1.10558,-0.3208 0.20464,-0.331 0.0399,-0.6061 -0.36591,-0.6105 -0.53615,0 -0.50682,-0.1585 0.10773,-0.5555 l 0.84568,-0.5463 -0.9866,-0.015 c -0.54238,0 -1.00298,0.3091 -1.02216,0.6962 -0.0197,0.388 -0.27286,0.1142 -0.56209,-0.6071 l -0.52544,-1.3119 -1.843,0.1589 c -1.99802,0.1721 -3.43678,-0.4176 -2.94799,-1.2093 0.16859,-0.2723 -0.20803,-0.3962 -0.83608,-0.2751 -0.62862,0.1209 -1.14278,-0.019 -1.14278,-0.3111 0,-0.2927 -0.61902,-0.5317 -1.37617,-0.5317 -0.75718,0 -1.54365,-0.2712 -1.74829,-0.602 -0.20464,-0.3317 -0.73686,-0.4624 -1.18225,-0.2915 -1.16588,0.447 -1.59719,-1.1761 -0.58182,-2.1909 0.47188,-0.4724 1.25103,-0.708 1.73137,-0.5237 0.48033,0.1843 1.27809,-0.069 1.77364,-0.5656 l 0.90036,-0.9003 h -1.13489 c -0.62353,0 -1.29106,-0.2536 -1.48274,-0.5639 -0.19166,-0.31 0.0473,-0.5636 0.53052,-0.5636 0.48316,0 0.87893,-0.2707 0.87893,-0.6016 0,-0.3308 -0.47133,-0.4521 -1.04807,-0.2694 -0.60831,0.1933 -1.35081,-0.034 -1.77082,-0.5383 -0.39746,-0.4794 -1.16308,-0.7314 -1.70092,-0.5611 -0.66357,0.2109 -1.07456,-0.056 -1.27696,-0.8326 -0.22551,-0.8623 -0.0265,-1.1434 0.80902,-1.1434 0.60945,0 0.95786,-0.2425 0.77464,-0.5391 -0.18323,-0.2965 -0.70585,-0.3963 -1.16083,-0.2215 -0.51586,0.1979 -0.82762,-0.023 -0.82762,-0.5885 0,-0.4985 0.25368,-0.9062 0.56378,-0.9062 0.31006,0 0.56376,-0.2536 0.56376,-0.5637 0,-0.31 -0.50738,-0.5638 -1.12754,-0.5638 -0.62017,0 -1.12757,-0.2107 -1.12757,-0.4685 0,-0.2577 -0.62578,-0.8033 -1.39027,-1.2126 -0.76449,-0.4093 -1.26794,-0.941 -1.1191,-1.1823 0.14884,-0.2413 -0.30388,-0.5205 -1.00578,-0.6201 -0.70249,-0.099 -1.28824,-0.5616 -1.30233,-1.0267 -0.0145,-0.4652 -0.30895,-0.7898 -0.65456,-0.7216 -0.35574,0.071 -0.79549,-1.0916 -1.01367,-2.6779 -0.21198,-1.5409 -0.63368,-2.8022 -0.93757,-2.8022 -0.30387,0 -0.47019,-0.394 -0.36983,-0.8754 0.10021,-0.4816 0.42339,-0.8428 0.71768,-0.8038 0.75602,0.1007 1.41735,-1.9407 1.065,-3.2875 -0.16238,-0.622 -0.79832,-1.2618 -1.41285,-1.4225 -0.61451,-0.1608 -1.25271,-0.8101 -1.4179,-1.4432 -0.16575,-0.6326 -0.78083,-1.3029 -1.36772,-1.489 -1.23187,-0.3913 -1.44046,-1.3902 -0.28978,-1.3902 0.42677,0 1.10838,-0.3997 1.51375,-0.8884 l 0.7374,-0.8888 -0.8045,-0.4971 c -0.442,-0.2734 -0.8062,-0.9522 -0.80902,-1.5077 -0.003,-0.6748 -0.37942,-0.969 -1.13263,-0.8856 -0.62016,0.067 -0.81016,-0.016 -0.42284,-0.1878 0.81016,-0.3596 0.96294,-1.9102 0.18773,-1.9102 -0.28414,0 -0.61452,0.2945 -0.73459,0.6537 -0.20184,0.6054 -1.28541,-0.054 -3.46781,-2.1081 -0.35576,-0.3354 -0.98604,-0.4961 -1.401,-0.358 l -0.75434,0.2515 0.6664,-1.2447 c 0.79945,-1.4946 0.29993,-3.9596 -0.80282,-3.9596 -0.43299,0 -0.89245,-0.3146 -1.02044,-0.6985 -0.16519,-0.4945 -1.46528,-0.6471 -4.44935,-0.522 l -4.21594,0.177 0.2351,-2.1566 c 0.16744,-1.5383 0.0592,-1.99 -0.37829,-1.5763 -0.90036,0.8526 -5.14732,0.3248 -5.14732,-0.6387 0,-0.4324 -0.24581,-0.7865 -0.5463,-0.7865 -0.29992,0 -0.4076,-0.4442 -0.23904,-0.9865 l 0.30669,-0.9865 -0.63423,0.9865 c -0.34898,0.5423 -0.88683,0.9865 -1.19522,0.9865 -0.30782,0 -0.48542,-0.4442 -0.39465,-0.9865 l 0.16575,-0.9865 -1.97322,0.051 c -1.09654,0.027 -2.17337,-0.2853 -2.42424,-0.7048 -0.54575,-0.9139 -2.14349,-1.0126 -1.94505,-0.1196 0.27456,1.2359 -1.00127,0.999 -1.99973,-0.3715 l -1.01253,-1.3902 h 0.93193 c 0.61845,0 0.81746,-0.3 0.59026,-0.8919 -0.18829,-0.4904 -0.34221,-0.9901 -0.34221,-1.1096 0,-0.1195 -0.40592,-0.062 -0.90261,0.129 -0.49613,0.1905 -1.1084,0.015 -1.35983,-0.3936 -0.25144,-0.4069 -1.24087,-0.7396 -2.19819,-0.7396 -1.95348,0 -1.96983,-0.022 -1.15009,-1.5538 0.43467,-0.8118 0.3952,-1.299 -0.14715,-1.8417 -0.92911,-0.9293 -3.82748,-0.5767 -4.66358,0.5663 l -0.63143,0.8639 -0.71655,-0.8632 c -0.39409,-0.4749 -1.01483,-0.7668 -1.37959,-0.6488 -1.88639,0.6093 -5.454,0.7412 -5.77987,0.2134 -0.20183,-0.3263 -0.83326,-0.4712 -1.40379,-0.3217 -0.57,0.1488 -1.11233,0.098 -1.20481,-0.1128 -0.0926,-0.2111 -0.67541,-0.3056 -1.29556,-0.2115 m -76.38755,96.0016 c 0.4826,0.9013 0.42058,1.2073 -0.29993,1.4843 -0.4995,0.191 -1.19521,0.06 -1.54644,-0.2904 -0.80281,-0.8029 -1.5408,-0.8224 -1.5408,-0.042 0,0.328 0.29655,0.4138 0.65962,0.1894 0.45552,-0.2819 0.53671,-0.087 0.26273,0.6264 -0.5497,1.4319 0.78251,2.1322 1.98562,1.0436 l 0.96011,-0.8689 -0.2847,1.3204 -0.28415,1.3203 0.80846,-0.9865 c 0.82649,-1.0082 2.42255,-1.4112 1.83678,-0.4635 -0.17757,0.2876 0.18775,0.6857 0.8124,0.8835 0.6247,0.1984 1.13603,0.6122 1.13603,0.9194 0,0.308 0.29317,0.3784 0.65116,0.1574 0.4031,-0.2498 0.49782,-0.1551 0.24807,0.2482 -0.221,0.3579 -0.13312,0.6512 0.19505,0.6512 0.32815,0 0.59705,-0.2691 0.59705,-0.5972 0,-0.3281 0.25369,-0.4402 0.56379,-0.2486 0.31008,0.1916 0.56375,-0.047 0.56375,-0.5306 0,-0.4832 -0.43127,-0.879 -0.9584,-0.879 -0.76337,0 -0.81578,-0.143 -0.25821,-0.7 0.557,-0.5571 0.80113,-0.5362 1.19691,0.1047 l 0.4978,0.8047 0.91389,-0.7591 c 0.5029,-0.417 0.78422,-1.098 0.62468,-1.5137 -0.18267,-0.4763 0.12748,-0.7553 0.84002,-0.7553 h 1.12923 l -0.63986,1.1957 c -0.45666,0.8536 -0.46119,1.0847 -0.0148,0.809 0.94941,-0.5867 2.79746,0.1889 3.47738,1.4585 l 0.6055,1.132 -1.13319,-0.606 c -1.55491,-0.832 -1.85821,-0.7662 -1.74149,0.3801 0.24466,2.4026 0.0732,2.5386 -2.70728,2.145 -1.4726,-0.2078 -3.3652,-0.8709 -4.2058,-1.4731 -0.84003,-0.6022 -2.22694,-1.0948 -3.08162,-1.0948 -0.85468,0 -2.65257,-0.4195 -3.99494,-0.932 l -2.44115,-0.9325 0.36815,-1.675 c 0.2486,-1.1308 0.11955,-1.8327 -0.39691,-2.1604 -0.49781,-0.3151 0.0654,-0.4876 1.61129,-0.4932 1.81028,0 2.52064,0.2622 2.98408,1.1277 m 48.22904,2.3783 c 0.0361,3.1833 0.57674,3.9521 1.34912,1.9196 0.62635,-1.6477 0.89809,-1.8 1.49288,-0.8363 0.24976,0.4029 0.15503,0.4978 -0.24807,0.2478 -0.41155,-0.2541 -0.65116,0.026 -0.65116,0.759 0,0.6381 0.19056,1.1631 0.42284,1.1652 0.60832,0 1.85709,2.8816 1.50133,3.457 -0.57674,0.9343 -2.30359,0.4715 -3.65834,-0.9792 -0.75152,-0.8055 -2.37014,-1.9788 -3.59634,-2.6074 l -2.23031,-1.1433 1.55826,-1.3401 c 0.85639,-0.737 1.38352,-1.6214 1.17097,-1.966 -0.46115,-0.7458 0.81918,-1.6861 2.01269,-1.4776 0.6055,0.1061 0.85414,0.9009 0.87613,2.8013 m -66.27449,-0.7738 c 0,0.267 0.6974,0.3741 1.55039,0.2377 1.21213,-0.1938 1.36548,-0.1168 0.70473,0.3513 -0.46512,0.3298 -0.60776,0.6033 -0.31741,0.6083 0.29034,0 -0.20071,0.7697 -1.09204,1.6999 -1.06609,1.113 -2.17619,1.6914 -3.24399,1.6914 h -1.62424 l 0.39578,-1.2686 c 0.45609,-1.4602 1.3384,-2.1667 2.19028,-1.7533 0.32529,0.1578 0.13366,-0.089 -0.42566,-0.5441 -0.76447,-0.6241 -0.83439,-0.9038 -0.2819,-1.1247 1.17268,-0.4703 2.14406,-0.4234 2.14406,0.1021 m 77.51961,0.079 c 0.1917,0.31 0.0649,0.5637 -0.28186,0.5637 -0.34674,0 -0.46571,0.2662 -0.26444,0.592 0.22608,0.366 0.74815,0.1506 1.36773,-0.5637 0.55138,-0.636 1.28936,-1.1558 1.64059,-1.1558 1.14166,0 0.67541,1.6103 -0.91163,3.1509 -1.10724,1.0752 -1.25382,1.4034 -0.51302,1.1484 1.47539,-0.5068 2.21846,0.136 1.26229,1.0927 -1.83455,1.8344 -3.26259,0.662 -4.00395,-3.2879 l -0.39465,-2.1041 h 0.87554 c 0.4809,0 1.03173,0.2538 1.2234,0.5638 m 9.87007,6.8994 c 0.64667,0.6943 1.57915,1.2652 2.07304,1.2687 0.4933,0 1.17943,0.4634 1.52445,1.0214 l 0.62692,1.0142 -2.37125,2.0866 c -1.30457,1.1473 -3.25526,2.7953 -4.33546,3.6623 l -1.96421,1.5765 -0.64552,-1.206 c -0.50289,-0.9398 -0.44821,-1.8092 0.25031,-3.9437 0.82876,-2.5331 2.98972,-6.7416 3.46216,-6.7416 0.11217,0 0.73293,0.5678 1.37956,1.2616"
         fillRule="nonzero"
         id="path5994"
         sodipodi:nodetypes="csscscccsccsscccscsccscccscccccscccccccsccscsccccsccscsscccsccssccccccccccccssssscsccccsscccscccccsscccssscccccscccscccccsccccccccccsscsccccscccccccccscsccscccscccscccsssscsscssccccsccccscccccccccccccsccccccccssssscccsccccsccscccccscscscsccccccccccsccscccccccccssccsssscssccccscccccccsscccccsssccsccscccccscsssccccccccssssccccscccccsssscsccccccccccccscsccccccsccsccssscsccsccccccscccccscccccccssscsccccssssccccsscssssscssccsssccsccsccccccscccccscccccsssccscccccccsssscsccccscccsccccsccsccccccsccssssscccccscsccccsccsccscccccccscccsccccccssccsccsccccsscscccccscccsccccccsc" /></g></g><style
     id="style5992">svg * { vector-effect: non-scaling-stroke; stroke-width: 1px; }</style></svg>
