<?xml version="1.0" encoding="UTF-8" standalone="no"?>
<!-- Created with Inkscape (http://www.inkscape.org/) -->

<svg
   width="210mm"
   height="297mm"
   viewBox="0 0 210 297"
   version="1.1"
   id="svg21510"
   xml:space="preserve"
   inkscape:version="1.2.1 (9c6d41e410, 2022-07-14)"
   sodipodi:docname="hill_bottom_side.svg"
   xmlns:inkscape="http://www.inkscape.org/namespaces/inkscape"
   xmlns:sodipodi="http://sodipodi.sourceforge.net/DTD/sodipodi-0.dtd"
   xmlns="http://www.w3.org/2000/svg"
   xmlns:svg="http://www.w3.org/2000/svg"><sodipodi:namedview
     id="namedview21512"
     pagecolor="#ffffff"
     bordercolor="#000000"
     borderopacity="0.25"
     inkscape:showpageshadow="2"
     inkscape:pageopacity="0.0"
     inkscape:pagecheckerboard="0"
     inkscape:deskcolor="#d1d1d1"
     inkscape:document-units="mm"
     showgrid="false"
     inkscape:zoom="16.871996"
     inkscape:cx="126.48177"
     inkscape:cy="240.99104"
     inkscape:window-width="1920"
     inkscape:window-height="1017"
     inkscape:window-x="-8"
     inkscape:window-y="-8"
     inkscape:window-maximized="1"
     inkscape:current-layer="g21680" /><defs
     id="defs21507"><marker
       id="DistanceX"
       orient="auto"
       refX="0.0"
       refY="0.0"
       style="overflow:visible"><path
         d="M 3,-3 L -3,3 M 0,-5 L  0,5"
         style="stroke:#000000; stroke-width:0.5"
         id="path21633" /></marker><pattern
       id="Hatch"
       patternUnits="userSpaceOnUse"
       width="8"
       height="8"
       x="0"
       y="0"><path
         d="M8 4 l-4,4"
         stroke="#000000"
         stroke-width="0.25"
         linecap="square"
         id="path21636" /><path
         d="M6 2 l-4,4"
         stroke="#000000"
         stroke-width="0.25"
         linecap="square"
         id="path21638" /><path
         d="M4 0 l-4,4"
         stroke="#000000"
         stroke-width="0.25"
         linecap="square"
         id="path21640" /></pattern><symbol
       id="*Model_Space" /><symbol
       id="*Paper_Space" /><symbol
       id="*Paper_Space0" /></defs><g
     inkscape:label="Layer 1"
     inkscape:groupmode="layer"
     id="layer1"><g
       inkscape:label="0"
       id="g21680"
       transform="matrix(0.26458333,0,0,0.26458333,-17.774205,-230.97732)"
       style="stroke-width:0.37795276;stroke-dasharray:none"><path
         style="fill:none;stroke:#000000;stroke-width:0.377953;stroke-linecap:round;stroke-dasharray:none"
         d="m 186.41606,1117.1555 h 13.2283"
         id="path21648" /><path
         style="fill:none;stroke:#000000;stroke-width:0.429185;stroke-linecap:round;stroke-dasharray:none"
         d="m 199.64436,1117.1008 v -12.1855"
         id="path21650" /><path
         style="fill:none;stroke:#000000;stroke-width:0.377953;stroke-linecap:round;stroke-dasharray:none"
         d="m 199.64436,1104.8709 h 510.2367"
         id="path21652" /><path
         style="fill:none;stroke:#000000;stroke-width:0.427847;stroke-linecap:round;stroke-dasharray:none"
         d="m 709.88106,1104.9926 v 12.1097"
         id="path21654" /><path
         style="fill:none;stroke:#000000;stroke-width:0.377953;stroke-linecap:round;stroke-dasharray:none"
         d="m 709.88106,1117.1555 h 13.228"
         id="path21656" /><path
         style="fill:none;stroke:#000000;stroke-width:0.377953;stroke-linecap:round;stroke-dasharray:none"
         d="m 723.10906,1377.9455 h -536.693"
         id="path21658" /><path
         style="fill:none;stroke:#000000;stroke-width:0.369423;stroke-linecap:round;stroke-dasharray:none"
         d="m 704.21106,1312.7191 v -182.342"
         id="path21662" /><path
         style="fill:none;stroke:#000000;stroke-width:0.377953;stroke-linecap:round;stroke-dasharray:none"
         d="M 704.21106,1130.3855 H 205.31366"
         id="path21664" /><path
         style="fill:none;stroke:#000000;stroke-width:0.377953;stroke-linecap:round;stroke-dasharray:none"
         d="m 205.31366,1130.3855 v 190.86"
         id="path21666" /><path
         style="fill:none;stroke:#000000;stroke-width:0.377953;stroke-linecap:round;stroke-dasharray:none"
         d="m 186.41606,1377.9455 v -260.79"
         id="path21668" /><path
         style="fill:none;stroke:#000000;stroke-width:0.377953;stroke-linecap:round;stroke-dasharray:none"
         d="m 723.10906,1117.1555 v 260.79"
         id="path21670" /><path
         style="opacity:0.84;fill:none;fill-rule:evenodd;stroke:#000000;stroke-width:0.377953;stroke-dasharray:none"
         d="m 205.15822,1321.0649 12.86823,-1.8882 10.35362,-2.5588 12.19766,-4.9057 7.83902,-1.05 c 0,0 3.12009,-0.9178 6.61701,-1.5401 3.49692,-0.6223 8.20887,-1.4521 13.06899,-2.2819 4.86013,-0.8298 9.86843,-1.6595 13.95804,-2.2819 4.08962,-0.6223 10.44572,0.4716 11.63112,0.4716 1.18539,0 4.95832,0.3166 9.85738,0.9593 4.89905,0.6427 10.92423,1.6113 16.61414,2.9152 5.6899,1.304 11.33789,2.4822 15.85976,3.3344 4.52186,0.8522 7.9176,1.3784 9.103,1.3784 1.18539,0 5.12509,-0.6316 8.91836,-1.0761 3.79327,-0.4445 6.43426,-2.0431 11.05731,-2.6358 4.62304,-0.5927 8.21061,-0.5148 11.88534,-0.9593 3.67473,-0.4445 7.7719,-0.9084 8.72021,-0.9084 0.94832,0 3.40196,0.4379 8.56066,0.8433 5.15871,0.4055 11.68137,0.9461 18.08548,1.4867 6.40412,0.5406 12.6897,1.0813 17.37425,1.4867 4.68455,0.4055 10.11503,2.6875 10.11503,2.6875 0,0 15.67106,4.1523 20.41264,5.1006 4.74159,0.9484 28.44951,0.4742 30.34615,0.4742 1.89663,0 17.54386,-1.4225 22.7596,-1.4225 5.21575,0 26.55288,-1.8966 29.87199,-1.8966 3.31911,0 17.54386,-2.845 25.60455,-2.3708 8.0607,0.4742 27.50119,2.845 27.50119,2.845 0,0 15.64723,1.4224 19.91466,1.4224 4.26743,0 16.59555,-0.9483 20.86297,-1.8966 4.26743,-0.9483 10.90565,-4.2674 15.64723,-4.7416 4.74159,-0.4742 17.06971,-2.3708 20.38882,-2.8449 3.31911,-0.4742 15.64723,-2.3708 15.64723,-2.3708 l 10.90564,3.3191 4.63147,2.2319"
         id="path22851"
         sodipodi:nodetypes="cccccssssssssssssssscssssscssssccc" /></g></g></svg>
