  0
SECTION
  2
HEADER
  9
$ACADVER
  1
AC1015
  9
$ACADMAINTVER
 70
     6
  9
$DWGCODEPAGE
  3
ANSI_1252
  9
$INSBASE
 10
0.0
 20
0.0
 30
0.0
  9
$EXTMIN
 10
-75.0
 20
-75.0
 30
0.0
  9
$EXTMAX
 10
75.0
 20
75.0
 30
0.0
  9
$LIMMIN
 10
0.0
 20
0.0
  9
$LIMMAX
 10
420.0
 20
297.0
  9
$ORTHOMODE
 70
     0
  9
$REGENMODE
 70
     1
  9
$FILLMODE
 70
     1
  9
$QTEXTMODE
 70
     0
  9
$MIRRTEXT
 70
     1
  9
$LTSCALE
 40
1.0
  9
$ATTMODE
 70
     1
  9
$TEXTSIZE
 40
3.5
  9
$TRACEWID
 40
1.0
  9
$TEXTSTYLE
  7
Standard
  9
$CLAYER
  8
0
  9
$CELTYPE
  6
ByLayer
  9
$CECOLOR
 62
   256
  9
$CELTSCALE
 40
1.0
  9
$DISPSILH
 70
     0
  9
$DIMSCALE
 40
1.0
  9
$DIMASZ
 40
3.302
  9
$DIMEXO
 40
0.0
  9
$DIMDLI
 40
3.75
  9
$DIMRND
 40
0.0
  9
$DIMDLE
 40
0.0
  9
$DIMEXE
 40
1.0
  9
$DIMTP
 40
0.0
  9
$DIMTM
 40
0.0
  9
$DIMTXT
 40
3.5
  9
$DIMCEN
 40
2.5
  9
$DIMTSZ
 40
0.0
  9
$DIMTOL
 70
     0
  9
$DIMLIM
 70
     0
  9
$DIMTIH
 70
     1
  9
$DIMTOH
 70
     1
  9
$DIMSE1
 70
     0
  9
$DIMSE2
 70
     0
  9
$DIMTAD
 70
     1
  9
$DIMZIN
 70
     1
  9
$DIMBLK
  1

  9
$DIMASO
 70
     1
  9
$DIMSHO
 70
     1
  9
$DIMPOST
  1

  9
$DIMAPOST
  1

  9
$DIMALT
 70
     0
  9
$DIMALTD
 70
     3
  9
$DIMALTF
 40
0.0393700787
  9
$DIMLFAC
 40
1.0
  9
$DIMTOFL
 70
     1
  9
$DIMTVP
 40
0.0
  9
$DIMTIX
 70
     0
  9
$DIMSOXD
 70
     0
  9
$DIMSAH
 70
     0
  9
$DIMBLK1
  1

  9
$DIMBLK2
  1

  9
$DIMSTYLE
  2
ISO-25
  9
$DIMCLRD
 70
     0
  9
$DIMCLRE
 70
     0
  9
$DIMCLRT
 70
     0
  9
$DIMTFAC
 40
1.0
  9
$DIMGAP
 40
1.524
  9
$DIMJUST
 70
     0
  9
$DIMSD1
 70
     0
  9
$DIMSD2
 70
     0
  9
$DIMTOLJ
 70
     0
  9
$DIMTZIN
 70
     1
  9
$DIMALTZ
 70
     0
  9
$DIMALTTZ
 70
     0
  9
$DIMUPT
 70
     0
  9
$DIMDEC
 70
     2
  9
$DIMTDEC
 70
     2
  9
$DIMALTU
 70
     2
  9
$DIMALTTD
 70
     3
  9
$DIMTXSTY
  7
Standard
  9
$DIMAUNIT
 70
     0
  9
$DIMADEC
 70
     2
  9
$DIMALTRND
 40
0.0
  9
$DIMAZIN
 70
     0
  9
$DIMDSEP
 70
    44
  9
$DIMATFIT
 70
     3
  9
$DIMFRAC
 70
     0
  9
$DIMLDRBLK
  1

  9
$DIMLUNIT
 70
     2
  9
$DIMLWD
 70
    -2
  9
$DIMLWE
 70
    -2
  9
$DIMTMOVE
 70
     0
  9
$LUNITS
 70
     2
  9
$LUPREC
 70
     2
  9
$SKETCHINC
 40
1.0
  9
$FILLETRAD
 40
0.0
  9
$AUNITS
 70
     0
  9
$AUPREC
 70
     2
  9
$MENU
  1
.
  9
$ELEVATION
 40
0.0
  9
$PELEVATION
 40
0.0
  9
$THICKNESS
 40
0.0
  9
$LIMCHECK
 70
     0
  9
$CHAMFERA
 40
0.0
  9
$CHAMFERB
 40
0.0
  9
$CHAMFERC
 40
0.0
  9
$CHAMFERD
 40
0.0
  9
$SKPOLY
 70
     0
  9
$TDCREATE
 40
2460289.614253542
  9
$TDUCREATE
 40
2460289.864253542
  9
$TDUPDATE
 40
2460289.614271725
  9
$TDUUPDATE
 40
2460289.864271725
  9
$TDINDWG
 40
0.0000000116
  9
$TDUSRTIMER
 40
0.0000000116
  9
$USRTIMER
 70
     1
  9
$ANGBASE
 50
0.0
  9
$ANGDIR
 70
     0
  9
$PDMODE
 70
     0
  9
$PDSIZE
 40
-1.0
  9
$PLINEWID
 40
0.0
  9
$SPLFRAME
 70
     0
  9
$SPLINETYPE
 70
     6
  9
$SPLINESEGS
 70
     8
  9
$HANDSEED
  5
15D
  9
$SURFTAB1
 70
     6
  9
$SURFTAB2
 70
     6
  9
$SURFTYPE
 70
     6
  9
$SURFU
 70
     6
  9
$SURFV
 70
     6
  9
$UCSBASE
  2

  9
$UCSNAME
  2

  9
$UCSORG
 10
0.0
 20
0.0
 30
0.0
  9
$UCSXDIR
 10
1.0
 20
0.0
 30
0.0
  9
$UCSYDIR
 10
0.0
 20
1.0
 30
0.0
  9
$UCSORTHOREF
  2

  9
$UCSORTHOVIEW
 70
     0
  9
$UCSORGTOP
 10
0.0
 20
0.0
 30
0.0
  9
$UCSORGBOTTOM
 10
0.0
 20
0.0
 30
0.0
  9
$UCSORGLEFT
 10
0.0
 20
0.0
 30
0.0
  9
$UCSORGRIGHT
 10
0.0
 20
0.0
 30
0.0
  9
$UCSORGFRONT
 10
0.0
 20
0.0
 30
0.0
  9
$UCSORGBACK
 10
0.0
 20
0.0
 30
0.0
  9
$PUCSBASE
  2

  9
$PUCSNAME
  2

  9
$PUCSORG
 10
0.0
 20
0.0
 30
0.0
  9
$PUCSXDIR
 10
1.0
 20
0.0
 30
0.0
  9
$PUCSYDIR
 10
0.0
 20
1.0
 30
0.0
  9
$PUCSORTHOREF
  2

  9
$PUCSORTHOVIEW
 70
     0
  9
$PUCSORGTOP
 10
0.0
 20
0.0
 30
0.0
  9
$PUCSORGBOTTOM
 10
0.0
 20
0.0
 30
0.0
  9
$PUCSORGLEFT
 10
0.0
 20
0.0
 30
0.0
  9
$PUCSORGRIGHT
 10
0.0
 20
0.0
 30
0.0
  9
$PUCSORGFRONT
 10
0.0
 20
0.0
 30
0.0
  9
$PUCSORGBACK
 10
0.0
 20
0.0
 30
0.0
  9
$USERI1
 70
     0
  9
$USERI2
 70
     0
  9
$USERI3
 70
     0
  9
$USERI4
 70
     0
  9
$USERI5
 70
     0
  9
$USERR1
 40
0.0
  9
$USERR2
 40
0.0
  9
$USERR3
 40
0.0
  9
$USERR4
 40
0.0
  9
$USERR5
 40
0.0
  9
$WORLDVIEW
 70
     1
  9
$SHADEDGE
 70
     3
  9
$SHADEDIF
 70
    70
  9
$TILEMODE
 70
     1
  9
$MAXACTVP
 70
    64
  9
$PINSBASE
 10
0.0
 20
0.0
 30
0.0
  9
$PLIMCHECK
 70
     0
  9
$PEXTMIN
 10
1.0000000000E+20
 20
1.0000000000E+20
 30
1.0000000000E+20
  9
$PEXTMAX
 10
-1.0000000000E+20
 20
-1.0000000000E+20
 30
-1.0000000000E+20
  9
$PLIMMIN
 10
0.0
 20
0.0
  9
$PLIMMAX
 10
420.0
 20
297.0
  9
$UNITMODE
 70
     0
  9
$VISRETAIN
 70
     1
  9
$PLINEGEN
 70
     0
  9
$PSLTSCALE
 70
     1
  9
$TREEDEPTH
 70
  3020
  9
$CMLSTYLE
  2
Standard
  9
$CMLJUST
 70
     0
  9
$CMLSCALE
 40
20.0
  9
$PROXYGRAPHICS
 70
     1
  9
$MEASUREMENT
 70
     1
  9
$CELWEIGHT
370
    -1
  9
$ENDCAPS
280
     0
  9
$JOINSTYLE
280
     0
  9
$LWDISPLAY
290
     1
  9
$INSUNITS
 70
     4
  9
$HYPERLINKBASE
  1

  9
$STYLESHEET
  1

  9
$XEDIT
290
     1
  9
$CEPSNTYPE
380
     0
  9
$PSTYLEMODE
290
     1
  9
$FINGERPRINTGUID
  2
{5b17d3b3-6e0e-44a9-8627-52d2cfcdd4da}
  9
$VERSIONGUID
  2
{FAEB1C32-E019-11D5-929B-00C0DF256EC4}
  9
$EXTNAMES
290
     1
  9
$PSVPSCALE
 40
0.0
  9
$OLESTARTUP
290
     0
  0
ENDSEC
  0
SECTION
  2
CLASSES
  0
CLASS
  1
ACDBDICTIONARYWDFLT
  2
AcDbDictionaryWithDefault
  3
ObjectDBX Classes
 90
        0
280
     0
281
     0
  0
CLASS
  1
VISUALSTYLE
  2
AcDbVisualStyle
  3
ObjectDBX Classes
 90
     4095
280
     0
281
     0
  0
CLASS
  1
MATERIAL
  2
AcDbMaterial
  3
ObjectDBX Classes
 90
     1153
280
     0
281
     0
  0
CLASS
  1
SCALE
  2
AcDbScale
  3
ObjectDBX Classes
 90
     1153
280
     0
281
     0
  0
CLASS
  1
TABLESTYLE
  2
AcDbTableStyle
  3
ObjectDBX Classes
 90
     4095
280
     0
281
     0
  0
CLASS
  1
MLEADERSTYLE
  2
AcDbMLeaderStyle
  3
ACDB_MLEADERSTYLE_CLASS
 90
     4095
280
     0
281
     0
  0
CLASS
  1
SUN
  2
AcDbSun
  3
SCENEOE
 90
     1153
280
     0
281
     0
  0
CLASS
  1
ACDBPLACEHOLDER
  2
AcDbPlaceHolder
  3
ObjectDBX Classes
 90
        0
280
     0
281
     0
  0
CLASS
  1
LAYOUT
  2
AcDbLayout
  3
ObjectDBX Classes
 90
        0
280
     0
281
     0
  0
ENDSEC
  0
SECTION
  2
TABLES
  0
TABLE
  2
VPORT
  5
8
330
0
100
AcDbSymbolTable
 70
     1
  0
VPORT
  5
29
330
8
100
AcDbSymbolTableRecord
100
AcDbViewportTableRecord
  2
*Active
 70
     0
 10
0.0
 20
0.0
 11
1.0
 21
1.0
 12
0.0
 22
0.0
 13
0.0
 23
0.0
 14
10.0
 24
10.0
 15
10.0
 25
10.0
 16
0.0
 26
0.0
 36
1.0
 17
0.0
 27
0.0
 37
0.0
 40
153.0
 41
1.0
 42
50.0
 43
0.0
 44
0.0
 50
0.0
 51
0.0
 71
     0
 72
   100
 73
     1
 74
     3
 75
     0
 76
     0
 77
     0
 78
     0
281
     0
 65
     1
110
0.0
120
0.0
130
0.0
111
1.0
121
0.0
131
0.0
112
0.0
122
1.0
132
0.0
 79
     0
146
0.0
  0
ENDTAB
  0
TABLE
  2
LTYPE
  5
5
330
0
100
AcDbSymbolTable
 70
     6
  0
LTYPE
  5
14
330
5
100
AcDbSymbolTableRecord
100
AcDbLinetypeTableRecord
  2
ByBlock
 70
     0
  3

 72
    65
 73
     0
 40
0.0
  0
LTYPE
  5
15
330
5
100
AcDbSymbolTableRecord
100
AcDbLinetypeTableRecord
  2
ByLayer
 70
     0
  3

 72
    65
 73
     0
 40
0.0
  0
LTYPE
  5
16
330
5
100
AcDbSymbolTableRecord
100
AcDbLinetypeTableRecord
  2
Continuous
 70
     0
  3
Solid line
 72
    65
 73
     0
 40
0.0
  0
LTYPE
  5
5E
330
5
100
AcDbSymbolTableRecord
100
AcDbLinetypeTableRecord
  2
HIDDEN
 70
     0
  3
Hidden __ __ __ __ __ __ __ __ __ __ __ __ __ __
 72
    65
 73
     2
 40
1.905
 49
1.27
 74
     0
 49
-0.635
 74
     0
  0
LTYPE
  5
5F
330
5
100
AcDbSymbolTableRecord
100
AcDbLinetypeTableRecord
  2
PHANTOM
 70
     0
  3
Phantom ______  __  __  ______  __  __  ______
 72
    65
 73
     6
 40
12.7
 49
6.35
 74
     0
 49
-1.27
 74
     0
 49
1.27
 74
     0
 49
-1.27
 74
     0
 49
1.27
 74
     0
 49
-1.27
 74
     0
  0
LTYPE
  5
60
330
5
100
AcDbSymbolTableRecord
100
AcDbLinetypeTableRecord
  2
CENTER
 70
     0
  3
Center ____ _ ____ _ ____ _ ____ _ ____ _ ____
 72
    65
 73
     4
 40
10.16
 49
6.35
 74
     0
 49
-1.27
 74
     0
 49
1.27
 74
     0
 49
-1.27
 74
     0
  0
LTYPE
  5
61
330
5
100
AcDbSymbolTableRecord
100
AcDbLinetypeTableRecord
  2
CENTERX2
 70
     0
  3
Center (2x) ________  __  ________  __  _____
 72
    65
 73
     4
 40
20.32
 49
12.7
 74
     0
 49
-2.54
 74
     0
 49
2.54
 74
     0
 49
-2.54
 74
     0
  0
LTYPE
  5
62
330
5
100
AcDbSymbolTableRecord
100
AcDbLinetypeTableRecord
  2
DOT2
 70
     0
  3
Dot (.5x) ........................................
 72
    65
 73
     2
 40
0.635
 49
0.0
 74
     0
 49
-0.635
 74
     0
  0
ENDTAB
  0
TABLE
  2
LAYER
  5
2
330
0
100
AcDbSymbolTable
 70
     1
  0
LAYER
  5
10
330
2
100
AcDbSymbolTableRecord
100
AcDbLayerTableRecord
  2
0
 70
     0
 62
     7
  6
Continuous
370
    -3
390
F
  0
ENDTAB
  0
TABLE
  2
STYLE
  5
3
330
0
100
AcDbSymbolTable
 70
     2
  0
STYLE
  5
11
330
3
100
AcDbSymbolTableRecord
100
AcDbTextStyleTableRecord
  2
Standard
 70
     0
 40
0.0
 41
1.0
 50
0.0
 71
     0
 42
3.5
  3
txt
  4

  0
STYLE
  5
159
330
3
100
AcDbSymbolTableRecord
100
AcDbTextStyleTableRecord
  2
SLDTEXTSTYLE0
 70
     0
 40
0.0
 41
0.7
 50
0.0
 71
     0
 42
3.5
  3
TXT
  4

  0
ENDTAB
  0
TABLE
  2
VIEW
  5
6
330
0
100
AcDbSymbolTable
 70
     0
  0
ENDTAB
  0
TABLE
  2
UCS
  5
7
330
0
100
AcDbSymbolTable
 70
     0
  0
ENDTAB
  0
TABLE
  2
APPID
  5
9
330
0
100
AcDbSymbolTable
 70
     1
  0
APPID
  5
12
330
9
100
AcDbSymbolTableRecord
100
AcDbRegAppTableRecord
  2
ACAD
 70
     0
  0
ENDTAB
  0
TABLE
  2
DIMSTYLE
  5
A
330
0
100
AcDbSymbolTable
 70
     1
100
AcDbDimStyleTable
  0
DIMSTYLE
105
27
330
A
100
AcDbSymbolTableRecord
100
AcDbDimStyleTableRecord
  2
ISO-25
 70
     0
 41
2.5
 42
0.625
 43
3.75
 44
1.25
 73
     0
 74
     0
 77
     1
 78
     8
140
2.5
141
2.5
143
0.0393700787
147
0.625
171
     3
172
     1
178
     0
271
     2
272
     2
274
     3
278
    44
283
     0
284
     8
340
11
  0
ENDTAB
  0
TABLE
  2
BLOCK_RECORD
  5
1
330
0
100
AcDbSymbolTable
 70
     1
  0
BLOCK_RECORD
  5
1F
330
1
100
AcDbSymbolTableRecord
100
AcDbBlockTableRecord
  2
*Model_Space
340
22
  0
BLOCK_RECORD
  5
1B
330
1
100
AcDbSymbolTableRecord
100
AcDbBlockTableRecord
  2
*Paper_Space
340
1E
  0
BLOCK_RECORD
  5
23
330
1
100
AcDbSymbolTableRecord
100
AcDbBlockTableRecord
  2
*Paper_Space0
340
26
  0
ENDTAB
  0
ENDSEC
  0
SECTION
  2
BLOCKS
  0
BLOCK
  5
20
330
1F
100
AcDbEntity
  8
0
100
AcDbBlockBegin
  2
*Model_Space
 70
     0
 10
0.0
 20
0.0
 30
0.0
  3
*Model_Space
  1

  0
ENDBLK
  5
21
330
1F
100
AcDbEntity
  8
0
100
AcDbBlockEnd
  0
BLOCK
  5
1C
330
1B
100
AcDbEntity
 67
     1
  8
0
100
AcDbBlockBegin
  2
*Paper_Space
 70
     0
 10
0.0
 20
0.0
 30
0.0
  3
*Paper_Space
  1

  0
ENDBLK
  5
1D
330
1B
100
AcDbEntity
 67
     1
  8
0
100
AcDbBlockEnd
  0
BLOCK
  5
24
330
23
100
AcDbEntity
  8
0
100
AcDbBlockBegin
  2
*Paper_Space0
 70
     0
 10
0.0
 20
0.0
 30
0.0
  3
*Paper_Space0
  1

  0
ENDBLK
  5
25
330
23
100
AcDbEntity
  8
0
100
AcDbBlockEnd
  0
ENDSEC
  0
SECTION
  2
ENTITIES
  0
SPLINE
  5
67
330
1F
100
AcDbEntity
  8
0
  6
Continuous
 62
     7
370
    25
100
AcDbSpline
210
0.0
220
0.0
230
1.0
 70
     8
 71
     3
 72
    27
 73
    23
 74
     0
 42
0.00000001
 43
0.00000001
 40
0.0
 40
0.0
 40
0.0
 40
0.0
 40
0.0297619783259909
 40
0.0589269624672566
 40
0.0875221898428087
 40
0.1155765574167615
 40
0.1431206644798891
 40
0.1701868409821447
 40
0.1968091581167062
 40
0.2230234178123519
 40
0.2488671179302529
 40
0.356692200443937
 40
0.4633651874060213
 40
0.5150245683722628
 40
0.5680186352886084
 40
0.6226718938436924
 40
0.679280323153111
 40
0.7381103998393262
 40
0.7993996291766928
 40
0.8633581266454937
 40
0.9301708291802718
 40
1.0
 40
1.0
 40
1.0
 40
1.0
 10
15.06071392415534
 20
23.78224979959064
 30
0.0
 10
14.94247783441716
 20
23.74174540862879
 30
0.0
 10
14.7083773473473
 20
23.66154910246174
 30
0.0
 10
14.3653409599036
 20
23.52944228492408
 30
0.0
 10
14.03294611086896
 20
23.3901778087548
 30
0.0
 10
13.71148774323019
 20
23.24286916310575
 30
0.0
 10
13.40089028496413
 20
23.08774549582178
 30
0.0
 10
13.10117409341246
 20
22.92474265408072
 30
0.0
 10
12.81233813096724
 20
22.75388364018731
 30
0.0
 10
12.5343757362575
 20
22.57512997022483
 30
0.0
 10
11.98394614546992
 20
22.19066871779408
 30
0.0
 10
11.21668399787212
 20
21.5261215605937
 30
0.0
 10
10.51463601058209
 20
20.64819528866402
 30
0.0
 10
10.05568648797754
 20
19.88777552392446
 30
0.0
 10
9.756769325572101
 20
19.28853070852647
 30
0.0
 10
9.496523292216123
 20
18.64913101793256
 30
0.0
 10
9.274790855431029
 20
17.96960139292817
 30
0.0
 10
9.091580983653998
 20
17.24997609906476
 30
0.0
 10
8.94663322007579
 20
16.49026368203875
 30
0.0
 10
8.840674534703105
 20
15.69045102666339
 30
0.0
 10
8.770576158940717
 20
14.85055853129939
 30
0.0
 10
8.75626463973638
 20
14.27686975974864
 30
0.0
 10
8.74895091156012
 20
13.98369307647787
 30
0.0
  0
SPLINE
  5
6C
330
1F
100
AcDbEntity
  8
0
  6
Continuous
 62
     7
370
    25
100
AcDbSpline
210
0.0
220
0.0
230
1.0
 70
     8
 71
     3
 72
    27
 73
    23
 74
     0
 42
0.00000001
 43
0.00000001
 40
0.0
 40
0.0
 40
0.0
 40
0.0
 40
0.029761978325266
 40
0.0589269624659773
 40
0.0875221898411452
 40
0.1155765574148837
 40
0.1431206644779674
 40
0.1701868409803496
 40
0.1968091581152056
 40
0.2230234178113116
 40
0.2488671179298359
 40
0.3566922004509573
 40
0.4633651874115123
 40
0.5150245683763068
 40
0.5680186352913977
 40
0.6226718938454328
 40
0.6792803231540181
 40
0.7381103998396188
 40
0.7993996291765898
 40
0.863358126645213
 40
0.9301708291800271
 40
1.0
 40
1.0
 40
1.0
 40
1.0
 10
11.7296732434484
 20
-23.13403413071783
 30
0.0
 10
11.84790933318471
 20
-23.09352973975807
 30
0.0
 10
12.08200982025148
 20
-23.01333343359496
 30
0.0
 10
12.4250462076916
 20
-22.88122661606256
 30
0.0
 10
12.75744105672467
 20
-22.7419621398976
 30
0.0
 10
13.07889942436384
 20
-22.59465349425189
 30
0.0
 10
13.38949688263233
 20
-22.43952982697033
 30
0.0
 10
13.68921307418841
 20
-22.27652698523067
 30
0.0
 10
13.97804903664005
 20
-22.10566797133771
 30
0.0
 10
14.25601143135828
 20
-21.92691430137483
 30
0.0
 10
14.80644102218292
 20
-21.54245304892918
 30
0.0
 10
15.57370316982609
 20
-20.87790589173307
 30
0.0
 10
16.27575115715824
 20
-19.99997961980441
 30
0.0
 10
16.7347006797619
 20
-19.23955985507985
 30
0.0
 10
17.03361784216616
 20
-18.64031503969538
 30
0.0
 10
17.29386387552136
 20
-18.00091534911176
 30
0.0
 10
17.5155963123066
 20
-17.32138572411487
 30
0.0
 10
17.6988061840845
 20
-16.60176043025603
 30
0.0
 10
17.84375394766445
 20
-15.8420480132317
 30
0.0
 10
17.94971263303968
 20
-15.04223535785508
 30
0.0
 10
18.01981100880537
 20
-14.20234286248692
 30
0.0
 10
18.0341225280125
 20
-13.62865409093232
 30
0.0
 10
18.04143625619019
 20
-13.33547740765918
 30
0.0
  0
SPLINE
  5
71
330
1F
100
AcDbEntity
  8
0
  6
Continuous
 62
     7
370
    25
100
AcDbSpline
210
0.0
220
0.0
230
1.0
 70
     8
 71
     3
 72
    31
 73
    27
 74
     0
 42
0.00000001
 43
0.00000001
 40
0.0
 40
0.0
 40
0.0
 40
0.0
 40
0.0373479790643635
 40
0.0738317442608765
 40
0.1094732057116738
 40
0.144295863486392
 40
0.1783249140660619
 40
0.211587357465855
 40
0.2441121029253863
 40
0.2759300705255071
 40
0.3070742854924871
 40
0.3375799613304144
 40
0.3674845673211325
 40
0.3968278754049807
 40
0.4256519810781725
 40
0.4540012928004539
 40
0.4819224845928365
 40
0.5094644071074163
 40
0.5366779535356802
 40
0.6433078896334292
 40
0.7511683069769489
 40
0.7979289697586265
 40
0.8459946082914029
 40
0.895572218485884
 40
0.9468504893116344
 40
1.0
 40
1.0
 40
1.0
 40
1.0
 10
8.748950911814658
 20
39.2727287067062
 30
0.0
 10
8.751982021575872
 20
39.11591858354977
 30
0.0
 10
8.757974102709118
 20
38.80592684636768
 30
0.0
 10
8.780629280761717
 20
38.34671680553614
 30
0.0
 10
8.813282369703304
 20
37.89876807527507
 30
0.0
 10
8.856856391022793
 20
37.46209125351791
 30
0.0
 10
8.91111426794551
 20
37.0366826932363
 30
0.0
 10
8.976119344756171
 20
36.62254255830309
 30
0.0
 10
9.051857491749765
 20
36.21967020683841
 30
0.0
 10
9.138334911350796
 20
35.82806544962939
 30
0.0
 10
9.235552795831467
 20
35.44772829840752
 30
0.0
 10
9.343513885175948
 20
35.07865910219891
 30
0.0
 10
9.462220633497717
 20
34.72085861773252
 30
0.0
 10
9.59167591158761
 20
34.37432797730754
 30
0.0
 10
9.731881629875671
 20
34.03906909699059
 30
0.0
 10
9.882842947055545
 20
33.71508341243361
 30
0.0
 10
10.04455253675635
 20
33.40237662732594
 30
0.0
 10
10.21704740879401
 20
33.10094140491849
 30
0.0
 10
10.57886635285513
 20
32.52780731981373
 30
0.0
 10
11.21665303463017
 20
31.73034114523448
 30
0.0
 10
12.05052306512869
 20
31.00815432515814
 30
0.0
 10
12.7564360395653
 20
30.53181006233866
 30
0.0
 10
13.28113148579145
 20
30.2268550720594
 30
0.0
 10
13.84127363234899
 20
29.94809185453517
 30
0.0
 10
14.43596001249092
 20
29.69267701158211
 30
0.0
 10
14.84998961809813
 20
29.54787191783401
 30
0.0
 10
15.0607139160719
 20
29.47417199080018
 30
0.0
  0
SPLINE
  5
74
330
1F
100
AcDbEntity
  8
0
  6
Continuous
 62
     7
370
    25
100
AcDbSpline
210
0.0
220
0.0
230
1.0
 70
     8
 71
     3
 72
    27
 73
    23
 74
     0
 42
0.00000001
 43
0.00000001
 40
0.0
 40
0.0
 40
0.0
 40
0.0
 40
0.0297619783271991
 40
0.0589269624693704
 40
0.0875221898455214
 40
0.1155765574197632
 40
0.1431206644828676
 40
0.170186840984787
 40
0.1968091581186977
 40
0.2230234178133796
 40
0.2488671179300064
 40
0.3566922004433947
 40
0.4633651874082081
 40
0.5150245683732606
 40
0.5680186352886163
 40
0.6226718938429324
 40
0.6792803231518257
 40
0.7381103998377676
 40
0.799399629175124
 40
0.8633581266441804
 40
0.9301708291794817
 40
0.9999999999999999
 40
0.9999999999999999
 40
0.9999999999999999
 40
0.9999999999999999
 10
30.35270574714541
 20
-28.82595631902485
 30
0.0
 10
30.23446965740137
 20
-28.86646070998742
 30
0.0
 10
30.000369170321
 20
-28.9466570161555
 30
0.0
 10
29.65733278286294
 20
-29.07876383369334
 30
0.0
 10
29.32493793381726
 20
-29.21802830986108
 30
0.0
 10
29.00347956617078
 20
-29.36533695550681
 30
0.0
 10
28.6928821079003
 20
-29.52046062278567
 30
0.0
 10
28.39316591634755
 20
-29.68346346451989
 30
0.0
 10
28.10432995390453
 20
-29.85432247840469
 30
0.0
 10
27.82636755920028
 20
-30.03307614835676
 30
0.0
 10
27.27593796841265
 20
-30.41753740077561
 30
0.0
 10
26.50867582080216
 20
-31.08208455797779
 30
0.0
 10
25.80662783349397
 20
-31.96001082990726
 30
0.0
 10
25.34767831087241
 20
-32.72043059464521
 30
0.0
 10
25.04876114846467
 20
-33.31967541003255
 30
0.0
 10
24.78851511510584
 20
-33.95907510061921
 30
0.0
 10
24.56678267831798
 20
-34.6386047256201
 30
0.0
 10
24.38357280653803
 20
-35.3582300194836
 30
0.0
 10
24.23862504295686
 20
-36.11794243651342
 30
0.0
 10
24.13266635758107
 20
-36.91775509189624
 30
0.0
 10
24.06256798181549
 20
-37.75764758727137
 30
0.0
 10
24.04825646260903
 20
-38.33133635883085
 30
0.0
 10
24.04094273443166
 20
-38.62451304210657
 30
0.0
  0
SPLINE
  5
79
330
1F
100
AcDbEntity
  8
0
  6
Continuous
 62
     7
370
    25
100
AcDbSpline
210
0.0
220
0.0
230
1.0
 70
     8
 71
     3
 72
    31
 73
    27
 74
     0
 42
0.00000001
 43
0.00000001
 40
0.0
 40
0.0
 40
0.0
 40
0.0
 40
0.0373479790645632
 40
0.0738317442612434
 40
0.1094732057121735
 40
0.1442958634869903
 40
0.1783249140667242
 40
0.2115873574665471
 40
0.2441121029260727
 40
0.275930070526152
 40
0.3070742854930548
 40
0.3375799613308698
 40
0.3674845673214402
 40
0.3968278754051056
 40
0.4256519810780789
 40
0.4540012928001089
 40
0.4819224845922064
 40
0.5094644071064687
 40
0.5366779535343846
 40
0.6433078896293998
 40
0.7511683069753698
 40
0.7979289697578781
 40
0.8459946082912237
 40
0.8955722184860164
 40
0.946850489311824
 40
0.9999999999999999
 40
0.9999999999999999
 40
0.9999999999999999
 40
0.9999999999999999
 10
-33.30808356888622
 20
-7.129393806493449
 30
0.0
 10
-33.31111467864717
 20
-6.972583683334551
 30
0.0
 10
-33.31710675977987
 20
-6.662591946147701
 30
0.0
 10
-33.33976193783165
 20
-6.203381905309268
 30
0.0
 10
-33.37241502677246
 20
-5.755433175041788
 30
0.0
 10
-33.41598904809121
 20
-5.318756353278769
 30
0.0
 10
-33.47024692501316
 20
-4.893347792991763
 30
0.0
 10
-33.53525200182317
 20
-4.479207658053684
 30
0.0
 10
-33.61099014881602
 20
-4.076335306584626
 30
0.0
 10
-33.69746756841642
 20
-3.684730549371749
 30
0.0
 10
-33.79468545289643
 20
-3.304393398146539
 30
0.0
 10
-33.9026465422403
 20
-2.935324201935047
 30
0.0
 10
-34.02135329056146
 20
-2.577523717466339
 30
0.0
 10
-34.15080856865078
 20
-2.230993077039512
 30
0.0
 10
-34.29101428693828
 20
-1.895734196721242
 30
0.0
 10
-34.44197560411764
 20
-1.571748512163411
 30
0.0
 10
-34.6036851938179
 20
-1.259041727055406
 30
0.0
 10
-34.77618006585518
 20
-0.9576065046481901
 30
0.0
 10
-35.13799900991186
 20
-0.3844724195491885
 30
0.0
 10
-35.77578569170082
 20
0.4129937550298067
 30
0.0
 10
-36.60965572221643
 20
1.135180575106375
 30
0.0
 10
-37.31556869667306
 20
1.611524837940721
 30
0.0
 10
-37.84026414291075
 20
1.916479828226964
 30
0.0
 10
-38.40040628947754
 20
2.195243045756022
 30
0.0
 10
-38.99509266962645
 20
2.450657888711698
 30
0.0
 10
-39.40912227523778
 20
2.595462982460116
 30
0.0
 10
-39.61984657321317
 20
2.669162909493932
 30
0.0
  0
SPLINE
  5
7E
330
1F
100
AcDbEntity
  8
0
  6
Continuous
 62
     7
370
    25
100
AcDbSpline
210
0.0
220
0.0
230
1.0
 70
     8
 71
     3
 72
    27
 73
    23
 74
     0
 42
0.00000001
 43
0.00000001
 40
0.0
 40
0.0
 40
0.0
 40
0.0
 40
0.0297619783271661
 40
0.0589269624693108
 40
0.0875221898454407
 40
0.1155765574196694
 40
0.1431206644827673
 40
0.170186840984687
 40
0.1968091581186067
 40
0.2230234178133047
 40
0.2488671179299556
 40
0.3566922004424523
 40
0.4633651874086805
 40
0.5150245683726289
 40
0.5680186352871223
 40
0.6226718938408351
 40
0.6792803231493932
 40
0.7381103998352762
 40
0.7993996291728481
 40
0.8633581266423948
 40
0.9301708291784562
 40
1.0
 40
1.0
 40
1.0
 40
1.0
 10
-39.6198465813975
 20
8.361085100712005
 30
0.0
 10
-39.50161049165418
 20
8.401589491674825
 30
0.0
 10
-39.26751000457526
 20
8.481785797843415
 30
0.0
 10
-38.9244736171194
 20
8.61389261538202
 30
0.0
 10
-38.59207876807585
 20
8.753157091550564
 30
0.0
 10
-38.27062040043142
 20
8.900465737197058
 30
0.0
 10
-37.96002294216293
 20
9.055589404476725
 30
0.0
 10
-37.66030675061211
 20
9.218592246211738
 30
0.0
 10
-37.37147078817094
 20
9.389451260097342
 30
0.0
 10
-37.09350839346851
 20
9.568204930050232
 30
0.0
 10
-36.54307880268779
 20
9.95266618246822
 30
0.0
 10
-35.77581665508388
 20
10.61721333967526
 30
0.0
 10
-35.07376866778064
 20
11.49513961159927
 30
0.0
 10
-34.61481914515851
 20
12.25555937633019
 30
0.0
 10
-34.31590198275734
 20
12.85480419170593
 30
0.0
 10
-34.05565594940396
 20
13.49420388228376
 30
0.0
 10
-33.83392351262093
 20
14.17373350727891
 30
0.0
 10
-33.65071364084501
 20
14.8933588011397
 30
0.0
 10
-33.50576587726714
 20
15.65307121816984
 30
0.0
 10
-33.39980719189385
 20
16.45288387355604
 30
0.0
 10
-33.32970881613009
 20
17.29277636893763
 30
0.0
 10
-33.31539729692419
 20
17.86646514050239
 30
0.0
 10
-33.3080835687471
 20
18.15964182378128
 30
0.0
  0
SPLINE
  5
7F
330
1F
100
AcDbEntity
  8
0
  6
Continuous
 62
     7
370
    25
100
AcDbSpline
210
0.0
220
0.0
230
1.0
 70
     8
 71
     3
 72
     8
 73
     4
 74
     0
 42
0.00000001
 43
0.00000001
 40
0.0
 40
0.0
 40
0.0
 40
0.0
 40
1.0
 40
1.0
 40
1.0
 40
1.0
 10
12.67862289964571
 20
-25.97999522483004
 30
0.0
 10
18.16935385027614
 20
-27.81080986797525
 30
0.0
 10
20.95687604882627
 20
-32.0128233680237
 30
0.0
 10
21.04118949529608
 20
-38.5860357249754
 30
0.0
  0
SPLINE
  5
80
330
1F
100
AcDbEntity
  8
0
  6
Continuous
 62
     7
370
    25
100
AcDbSpline
210
0.0
220
0.0
230
1.0
 70
     8
 71
     3
 72
     8
 73
     4
 74
     0
 42
0.00000001
 43
0.00000001
 40
0.0
 40
0.0
 40
0.0
 40
0.0
 40
1.0
 40
1.0
 40
1.0
 40
1.0
 10
21.04118949529608
 20
-38.5860357249754
 30
0.0
 10
21.1255029417659
 20
-32.01282336802371
 30
0.0
 10
23.91302514031603
 20
-27.81080986797526
 30
0.0
 10
29.40375609094646
 20
-25.97999522483004
 30
0.0
  0
SPLINE
  5
81
330
1F
100
AcDbEntity
  8
0
  6
Continuous
 62
     7
370
    25
100
AcDbSpline
210
0.0
220
0.0
230
1.0
 70
     8
 71
     3
 72
     8
 73
     4
 74
     0
 42
0.00000001
 43
0.00000001
 40
0.0
 40
0.0
 40
0.0
 40
0.0
 40
1.0
 40
1.0
 40
1.0
 40
1.0
 10
29.40375609094646
 20
-25.97999522483004
 30
0.0
 10
23.91302514031603
 20
-24.14918058168483
 30
0.0
 10
21.1255029417659
 20
-19.94716708163638
 30
0.0
 10
21.04118949529608
 20
-13.37395472468469
 30
0.0
  0
SPLINE
  5
82
330
1F
100
AcDbEntity
  8
0
  6
Continuous
 62
     7
370
    25
100
AcDbSpline
210
0.0
220
0.0
230
1.0
 70
     8
 71
     3
 72
     8
 73
     4
 74
     0
 42
0.00000001
 43
0.00000001
 40
0.0
 40
0.0
 40
0.0
 40
0.0
 40
1.0
 40
1.0
 40
1.0
 40
1.0
 10
21.04118949529608
 20
-13.37395472468469
 30
0.0
 10
20.95687604882627
 20
-19.94716708163638
 30
0.0
 10
18.16935385027614
 20
-24.14918058168483
 30
0.0
 10
12.67862289964571
 20
-25.97999522483004
 30
0.0
  0
SPLINE
  5
83
330
1F
100
AcDbEntity
  8
0
  6
Continuous
 62
     7
370
    25
100
AcDbSpline
210
0.0
220
0.0
230
1.0
 70
     8
 71
     3
 72
     8
 73
     4
 74
     0
 42
0.00000001
 43
0.00000001
 40
0.0
 40
0.0
 40
0.0
 40
0.0
 40
1.0
 40
1.0
 40
1.0
 40
1.0
 10
-38.67089692521471
 20
5.515124006574244
 30
0.0
 10
-33.18016597458427
 20
3.684309363429032
 30
0.0
 10
-30.39264377603415
 20
-0.5177041366194199
 30
0.0
 10
-30.30833032956433
 20
-7.09091649357111
 30
0.0
  0
SPLINE
  5
84
330
1F
100
AcDbEntity
  8
0
  6
Continuous
 62
     7
370
    25
100
AcDbSpline
210
0.0
220
0.0
230
1.0
 70
     8
 71
     3
 72
     8
 73
     4
 74
     0
 42
0.00000001
 43
0.00000001
 40
0.0
 40
0.0
 40
0.0
 40
0.0
 40
1.0
 40
1.0
 40
1.0
 40
1.0
 10
-30.30833032956433
 20
-7.09091649357111
 30
0.0
 10
-30.22401688309451
 20
-0.5177041366194226
 30
0.0
 10
-27.43649468454438
 20
3.68430936342903
 30
0.0
 10
-21.94576373391395
 20
5.515124006574248
 30
0.0
  0
SPLINE
  5
85
330
1F
100
AcDbEntity
  8
0
  6
Continuous
 62
     7
370
    25
100
AcDbSpline
210
0.0
220
0.0
230
1.0
 70
     8
 71
     3
 72
     8
 73
     4
 74
     0
 42
0.00000001
 43
0.00000001
 40
0.0
 40
0.0
 40
0.0
 40
0.0
 40
1.0
 40
1.0
 40
1.0
 40
1.0
 10
-21.94576373391395
 20
5.515124006574248
 30
0.0
 10
-27.43649468454439
 20
7.345938649719458
 30
0.0
 10
-30.22401688309451
 20
11.54795214976791
 30
0.0
 10
-30.30833032956433
 20
18.1211645067196
 30
0.0
  0
SPLINE
  5
86
330
1F
100
AcDbEntity
  8
0
  6
Continuous
 62
     7
370
    25
100
AcDbSpline
210
0.0
220
0.0
230
1.0
 70
     8
 71
     3
 72
     8
 73
     4
 74
     0
 42
0.00000001
 43
0.00000001
 40
0.0
 40
0.0
 40
0.0
 40
0.0
 40
1.0
 40
1.0
 40
1.0
 40
1.0
 10
-30.30833032956433
 20
18.1211645067196
 30
0.0
 10
-30.39264377603415
 20
11.54795214976791
 30
0.0
 10
-33.18016597458427
 20
7.345938649719458
 30
0.0
 10
-38.67089692521471
 20
5.515124006574244
 30
0.0
  0
SPLINE
  5
87
330
1F
100
AcDbEntity
  8
0
  6
Continuous
 62
     7
370
    25
100
AcDbSpline
210
0.0
220
0.0
230
1.0
 70
     8
 71
     3
 72
     8
 73
     4
 74
     0
 42
0.00000001
 43
0.00000001
 40
0.0
 40
0.0
 40
0.0
 40
0.0
 40
1.0
 40
1.0
 40
1.0
 40
1.0
 10
-2.613368923235313
 20
26.62821089373323
 30
0.0
 10
2.877362027395124
 20
24.79739625058803
 30
0.0
 10
5.66488422594525
 20
20.59538275053957
 30
0.0
 10
5.749197672415063
 20
14.02217039358788
 30
0.0
  0
SPLINE
  5
88
330
1F
100
AcDbEntity
  8
0
  6
Continuous
 62
     7
370
    25
100
AcDbSpline
210
0.0
220
0.0
230
1.0
 70
     8
 71
     3
 72
     8
 73
     4
 74
     0
 42
0.00000001
 43
0.00000001
 40
0.0
 40
0.0
 40
0.0
 40
0.0
 40
1.0
 40
1.0
 40
1.0
 40
1.0
 10
5.749197672415063
 20
14.02217039358788
 30
0.0
 10
5.83351111888488
 20
20.59538275053957
 30
0.0
 10
8.621033317435007
 20
24.79739625058803
 30
0.0
 10
14.11176426806544
 20
26.62821089373324
 30
0.0
  0
SPLINE
  5
89
330
1F
100
AcDbEntity
  8
0
  6
Continuous
 62
     7
370
    25
100
AcDbSpline
210
0.0
220
0.0
230
1.0
 70
     8
 71
     3
 72
     8
 73
     4
 74
     0
 42
0.00000001
 43
0.00000001
 40
0.0
 40
0.0
 40
0.0
 40
0.0
 40
1.0
 40
1.0
 40
1.0
 40
1.0
 10
14.11176426806544
 20
26.62821089373324
 30
0.0
 10
8.621033317435003
 20
28.45902553687845
 30
0.0
 10
5.833511118884878
 20
32.66103903692689
 30
0.0
 10
5.749197672415063
 20
39.23425139387859
 30
0.0
  0
SPLINE
  5
8A
330
1F
100
AcDbEntity
  8
0
  6
Continuous
 62
     7
370
    25
100
AcDbSpline
210
0.0
220
0.0
230
1.0
 70
     8
 71
     3
 72
     8
 73
     4
 74
     0
 42
0.00000001
 43
0.00000001
 40
0.0
 40
0.0
 40
0.0
 40
0.0
 40
1.0
 40
1.0
 40
1.0
 40
1.0
 10
5.749197672415063
 20
39.23425139387859
 30
0.0
 10
5.66488422594525
 20
32.6610390369269
 30
0.0
 10
2.877362027395124
 20
28.45902553687845
 30
0.0
 10
-2.613368923235313
 20
26.62821089373323
 30
0.0
  0
SPLINE
  5
C1
330
1F
100
AcDbEntity
  8
0
  6
Continuous
 62
     7
370
    25
100
AcDbSpline
210
0.0
220
0.0
230
1.0
 70
     8
 71
     3
 72
    31
 73
    27
 74
     0
 42
0.00000001
 43
0.00000001
 40
0.0
 40
0.0
 40
0.0
 40
0.0
 40
0.0373479790642543
 40
0.0738317442606576
 40
0.1094732057113436
 40
0.1442958634859494
 40
0.1783249140655057
 40
0.2115873574651836
 40
0.2441121029245989
 40
0.2759300705246013
 40
0.3070742854914615
 40
0.3375799613292675
 40
0.3674845673198627
 40
0.3968278754035857
 40
0.4256519810766499
 40
0.4540012927988024
 40
0.4819224845910539
 40
0.5094644071055
 40
0.5366779535336287
 40
0.6433078896381742
 40
0.7511683069774209
 40
0.7979289697563327
 40
0.8459946082876787
 40
0.8955722184820729
 40
0.9468504893090715
 40
0.9999999999999999
 40
0.9999999999999999
 40
0.9999999999999999
 40
0.9999999999999999
 10
-27.30857709020132
 20
18.1596418196072
 30
0.0
 10
-27.30554598044057
 20
18.00283169645068
 30
0.0
 10
-27.29955389930825
 20
17.69283995926844
 30
0.0
 10
-27.27689872125702
 20
17.23362991843667
 30
0.0
 10
-27.24424563231676
 20
16.78568118817535
 30
0.0
 10
-27.20067161099859
 20
16.349004366418
 30
0.0
 10
-27.14641373407717
 20
15.92359580613619
 30
0.0
 10
-27.08140865726779
 20
15.50945567120279
 30
0.0
 10
-27.00567051027544
 20
15.10658331973795
 30
0.0
 10
-26.91919309067564
 20
14.71497856252879
 30
0.0
 10
-26.82197520619615
 20
14.3346414113068
 30
0.0
 10
-26.71401411685286
 20
13.96557221509805
 30
0.0
 10
-26.59530736853221
 20
13.60777173063159
 30
0.0
 10
-26.46585209044348
 20
13.26124109020652
 30
0.0
 10
-26.32564637215648
 20
12.92598220988953
 30
0.0
 10
-26.17468505497771
 20
12.60199652533246
 30
0.0
 10
-26.0129754652779
 20
12.2892897402248
 30
0.0
 10
-25.84048059324144
 20
11.9878545178172
 30
0.0
 10
-25.4786616491645
 20
11.4147204326874
 30
0.0
 10
-24.84087496739981
 20
10.61725425808398
 30
0.0
 10
-24.00700493691392
 20
9.89506743798654
 30
0.0
 10
-23.30109196250107
 20
9.418723175189818
 30
0.0
 10
-22.77639651628599
 20
9.113768184923266
 30
0.0
 10
-22.21625436972488
 20
8.835004967403917
 30
0.0
 10
-21.62156798956487
 20
8.579590124447988
 30
0.0
 10
-21.20753838394128
 20
8.434785030693781
 30
0.0
 10
-20.9968140859567
 20
8.361085103655986
 30
0.0
  0
SPLINE
  5
C4
330
1F
100
AcDbEntity
  8
0
  6
Continuous
 62
     7
370
    25
100
AcDbSpline
210
0.0
220
0.0
230
1.0
 70
     8
 71
     3
 72
    31
 73
    27
 74
     0
 42
0.00000001
 43
0.00000001
 40
0.0
 40
0.0
 40
0.0
 40
0.0
 40
0.037347979064039
 40
0.0738317442602569
 40
0.1094732057107882
 40
0.1442958634852711
 40
0.178324914064737
 40
0.2115873574643592
 40
0.2441121029237527
 40
0.2759300705237689
 40
0.3070742854906794
 40
0.3375799613285735
 40
0.3674845673192943
 40
0.3968278754031822
 40
0.42565198107645
 40
0.4540012927988462
 40
0.4819224845913808
 40
0.5094644071061494
 40
0.5366779535346402
 40
0.6433078896326124
 40
0.7511683069787013
 40
0.7979289697553458
 40
0.8459946082854118
 40
0.8955722184795389
 40
0.9468504893072934
 40
1.0
 40
1.0
 40
1.0
 40
1.0
 10
2.749444433142142
 20
13.98369308062357
 30
0.0
 10
2.746413323382076
 20
14.14050320378205
 30
0.0
 10
2.740421242251092
 20
14.45049494096829
 30
0.0
 10
2.717766064201327
 20
14.90970498180618
 30
0.0
 10
2.685112975262098
 20
15.35765371207382
 30
0.0
 10
2.641538953944454
 20
15.7943305338377
 30
0.0
 10
2.587281077023089
 20
16.21973909412626
 30
0.0
 10
2.522276000213284
 20
16.6338792290666
 30
0.0
 10
2.446537853220041
 20
17.0367515805386
 30
0.0
 10
2.360060433618857
 20
17.42835633775511
 30
0.0
 10
2.262842549137529
 20
17.80869348898467
 30
0.0
 10
2.154881459791904
 20
18.17776268520119
 30
0.0
 10
2.036174711468472
 20
18.53556316967563
 30
0.0
 10
1.906719433376431
 20
18.88209381010887
 30
0.0
 10
1.766513715085705
 20
19.21735269043426
 30
0.0
 10
1.615552397902678
 20
19.5413383749999
 30
0.0
 10
1.453842808198236
 20
19.85404516011641
 30
0.0
 10
1.281347936156354
 20
20.15548038253283
 30
0.0
 10
0.9195289920880064
 20
20.72861446765356
 30
0.0
 10
0.2817423102889615
 20
21.52608064225809
 30
0.0
 10
-0.5521277202187548
 20
22.24826746234609
 30
0.0
 10
-1.258040694654278
 20
22.72461172516155
 30
0.0
 10
-1.782736140868566
 20
23.0295667154199
 30
0.0
 10
-2.342878287440195
 20
23.30832993293615
 30
0.0
 10
-2.937564667623161
 20
23.56374477589263
 30
0.0
 10
-3.351594273265825
 20
23.70854986964869
 30
0.0
 10
-3.562318571262046
 20
23.7822497966881
 30
0.0
  0
SPLINE
  5
D0
330
1F
100
AcDbEntity
  8
0
  6
Continuous
 62
     7
370
    25
100
AcDbSpline
210
0.0
220
0.0
230
1.0
 70
     8
 71
     3
 72
    31
 73
    27
 74
     0
 42
0.00000001
 43
0.00000001
 40
0.0
 40
0.0
 40
0.0
 40
0.0
 40
0.0373479790637537
 40
0.0738317442597258
 40
0.1094732057100521
 40
0.1442958634843704
 40
0.1783249140637131
 40
0.2115873574632531
 40
0.2441121029226066
 40
0.2759300705226262
 40
0.3070742854895812
 40
0.3375799613275628
 40
0.3674845673184144
 40
0.3968278754024734
 40
0.4256519810759545
 40
0.4540012927986045
 40
0.4819224845914329
 40
0.5094644071065334
 40
0.5366779535353932
 40
0.6433078896318281
 40
0.7511683069748852
 40
0.7979289697574777
 40
0.8459946082909156
 40
0.8955722184858058
 40
0.9468504893117161
 40
1.0
 40
1.0
 40
1.0
 40
1.0
 10
18.04143625595456
 20
-38.62451303789773
 30
0.0
 10
18.03840514619359
 20
-38.46770291474215
 30
0.0
 10
18.0324130650608
 20
-38.1577111775615
 30
0.0
 10
18.00975788700834
 20
-37.69850113673174
 30
0.0
 10
17.97710479806651
 20
-37.25055240647172
 30
0.0
 10
17.93353077674631
 20
-36.81387558471489
 30
0.0
 10
17.87927289982245
 20
-36.38846702443286
 30
0.0
 10
17.81426782301022
 20
-35.97432688949849
 30
0.0
 10
17.73852967601461
 20
-35.57145453803189
 30
0.0
 10
17.65205225641112
 20
-35.17984978082025
 30
0.0
 10
17.55483437192756
 20
-34.79951262959504
 30
0.0
 10
17.44687328257974
 20
-34.43044343338228
 30
0.0
 10
17.3281665342542
 20
-34.07264294891109
 30
0.0
 10
17.1987112561601
 20
-33.72611230848053
 30
0.0
 10
17.05850553786739
 20
-33.39085342815729
 30
0.0
 10
16.90754422068244
 20
-33.06686774359324
 30
0.0
 10
16.74583463097614
 20
-32.7541609584778
 30
0.0
 10
16.57333975893245
 20
-32.45272573606186
 30
0.0
 10
16.21152081486751
 20
-31.87959165095179
 30
0.0
 10
15.57373413308673
 20
-31.082125476369
 30
0.0
 10
14.73986410257791
 20
-30.3599386562917
 30
0.0
 10
14.03395112812814
 20
-29.88359439346687
 30
0.0
 10
13.50925568188837
 20
-29.57863940318126
 30
0.0
 10
12.94911353531938
 20
-29.29987618565312
 30
0.0
 10
12.35442715516828
 20
-29.04446134269833
 30
0.0
 10
11.94039754955554
 20
-28.89965624895053
 30
0.0
 10
11.72967325157944
 20
-28.82595632191702
 30
0.0
  0
SPLINE
  5
D8
330
1F
100
AcDbEntity
  8
0
  6
Continuous
 62
     7
370
    25
100
AcDbSpline
210
0.0
220
0.0
230
1.0
 70
     8
 71
     3
 72
    27
 73
    23
 74
     0
 42
0.00000001
 43
0.00000001
 40
0.0
 40
0.0
 40
0.0
 40
0.0
 40
0.0297619783256328
 40
0.0589269624666395
 40
0.08752218984203
 40
0.1155765574159176
 40
0.1431206644790751
 40
0.1701868409814546
 40
0.1968091581162318
 40
0.2230234178121816
 40
0.2488671179304731
 40
0.3566922004451902
 40
0.463365187406564
 40
0.5150245683727342
 40
0.568018635288992
 40
0.6226718938439804
 40
0.679280323153306
 40
0.7381103998394374
 40
0.7993996291767372
 40
0.8633581266454944
 40
0.9301708291802566
 40
0.9999999999999999
 40
0.9999999999999999
 40
0.9999999999999999
 40
0.9999999999999999
 10
-3.562318579454664
 20
29.47417198794263
 30
0.0
 10
-3.444082489716541
 20
29.51467637890325
 30
0.0
 10
-3.209982002646435
 20
29.59487268506798
 30
0.0
 10
-2.866945615201693
 20
29.7269795026024
 30
0.0
 10
-2.534550766164812
 20
29.86624397876891
 30
0.0
 10
-2.213092398522617
 20
30.0135526244156
 30
0.0
 10
-1.902494940251933
 20
30.16867629169765
 30
0.0
 10
-1.602778748694454
 20
30.33167913343724
 30
0.0
 10
-1.313942786242217
 20
30.50253814732964
 30
0.0
 10
-1.035980391524278
 20
30.68129181729154
 30
0.0
 10
-0.4855508007195781
 20
31.06575306972024
 30
0.0
 10
0.2817113469005859
 20
31.73030022691236
 30
0.0
 10
0.9837593342116197
 20
32.60822649883931
 30
0.0
 10
1.442708856826114
 20
33.36864626357737
 30
0.0
 10
1.741626019239517
 20
33.96789107897645
 30
0.0
 10
2.0018720526027
 20
34.60729076957247
 30
0.0
 10
2.223604489394337
 20
35.28682039457986
 30
0.0
 10
2.406814361177232
 20
36.00644568844714
 30
0.0
 10
2.551762124760649
 20
36.76615810547795
 30
0.0
 10
2.657720810137866
 20
37.56597076085901
 30
0.0
 10
2.727819185904172
 20
38.40586325622961
 30
0.0
 10
2.742130705110504
 20
38.97955202778513
 30
0.0
 10
2.749444433287783
 20
39.27272871105838
 30
0.0
  0
SPLINE
  5
E4
330
1F
100
AcDbEntity
  8
0
  6
Continuous
 62
     7
370
    25
100
AcDbSpline
210
0.0
220
0.0
230
1.0
 70
     8
 71
     3
 72
    27
 73
    23
 74
     0
 42
0.00000001
 43
0.00000001
 40
0.0
 40
0.0
 40
0.0
 40
0.0
 40
0.0297619783245436
 40
0.0589269624647776
 40
0.0875221898397144
 40
0.1155765574134683
 40
0.1431206644768133
 40
0.1701868409797015
 40
0.1968091581153062
 40
0.2230234178124006
 40
0.2488671179321477
 40
0.3566922004475993
 40
0.4633651874089169
 40
0.5150245683750048
 40
0.5680186352911586
 40
0.6226718938460096
 40
0.679280323155153
 40
0.7381103998410489
 40
0.7993996291780517
 40
0.8633581266464441
 40
0.9301708291807692
 40
0.9999999999999999
 40
0.9999999999999999
 40
0.9999999999999999
 40
0.9999999999999999
 10
-20.99681407771422
 20
2.669162912329319
 30
0.0
 10
-21.11505016744522
 20
2.628658521370657
 30
0.0
 10
-21.34915065450237
 20
2.548462215209401
 30
0.0
 10
-21.69218704192949
 20
2.416355397679232
 30
0.0
 10
-22.02458189095255
 20
2.277090921515501
 30
0.0
 10
-22.34604025858472
 20
2.129782275870029
 30
0.0
 10
-22.65663771684918
 20
1.97465860858768
 30
0.0
 10
-22.9563539084042
 20
1.811655766846253
 30
0.0
 10
-23.24518987085781
 20
1.640796752950539
 30
0.0
 10
-23.52315226558083
 20
1.46204308298369
 30
0.0
 10
-24.0735818563849
 20
1.077581830556027
 30
0.0
 10
-24.84084400399776
 20
0.4130346733768385
 30
0.0
 10
-25.54289199129736
 20
-0.4648915985303417
 30
0.0
 10
-26.00184151390294
 20
-1.225311363249249
 30
0.0
 10
-26.30075867631174
 20
-1.824556178632245
 30
0.0
 10
-26.56100470967207
 20
-2.463955869210736
 30
0.0
 10
-26.78273714646272
 20
-3.143485494199062
 30
0.0
 10
-26.96594701824644
 20
-3.863110788045815
 30
0.0
 10
-27.11089478183251
 20
-4.622823205054559
 30
0.0
 10
-27.2168534672142
 20
-5.422635860412063
 30
0.0
 10
-27.28695184298673
 20
-6.262528355757578
 30
0.0
 10
-27.30126336219853
 20
-6.836217127296068
 30
0.0
 10
-27.3085770903786
 20
-7.129393810560513
 30
0.0
  0
SPLINE
  5
E9
330
1F
100
AcDbEntity
  8
0
  6
Continuous
 62
     7
370
    25
100
AcDbSpline
210
0.0
220
0.0
230
1.0
 70
     8
 71
     3
 72
    31
 73
    27
 74
     0
 42
0.00000001
 43
0.00000001
 40
0.0
 40
0.0
 40
0.0
 40
0.0
 40
0.0373479790640507
 40
0.0738317442602577
 40
0.1094732057107548
 40
0.1442958634851803
 40
0.1783249140645656
 40
0.2115873574640831
 40
0.2441121029233483
 40
0.2759300705232125
 40
0.3070742854899469
 40
0.3375799613276411
 40
0.3674845673181389
 40
0.3968278754017805
 40
0.4256519810747798
 40
0.4540012927968848
 40
0.4819224845891077
 40
0.5094644071035447
 40
0.5366779535316845
 40
0.6433078896336262
 40
0.7511683069760218
 40
0.7979289697543723
 40
0.8459946082855736
 40
0.8955722184802462
 40
0.9468504893079475
 40
1.0
 40
1.0
 40
1.0
 40
1.0
 10
24.04094273456664
 20
-13.33547741177953
 30
0.0
 10
24.04397384432782
 20
-13.49228753493656
 30
0.0
 10
24.049965925461
 20
-13.80227927211983
 30
0.0
 10
24.07262110351377
 20
-14.26148931295308
 30
0.0
 10
24.10527419245576
 20
-14.70943804321584
 30
0.0
 10
24.1488482137759
 20
-15.14611486497458
 30
0.0
 10
24.2031060906995
 20
-15.57152342525774
 30
0.0
 10
24.26811116751125
 20
-15.98566356019243
 30
0.0
 10
24.3438493145062
 20
-16.38853591165853
 30
0.0
 10
24.43032673410878
 20
-16.78014066886889
 30
0.0
 10
24.52754461859129
 20
-17.16047782009203
 30
0.0
 10
24.63550570793779
 20
-17.52954701630188
 30
0.0
 10
24.75421245626186
 20
-17.8873475007694
 30
0.0
 10
24.88366773435424
 20
-18.23387814119548
 30
0.0
 10
25.02387345264508
 20
-18.56913702151344
 30
0.0
 10
25.17483476982792
 20
-18.89312270607142
 30
0.0
 10
25.33654435953195
 20
-19.20582949117994
 30
0.0
 10
25.50903923157297
 20
-19.5072647135883
 30
0.0
 10
25.87085817565251
 20
-20.08039879871065
 30
0.0
 10
26.50864485744237
 20
-20.87786497330912
 30
0.0
 10
27.34251488795032
 20
-21.60005179339492
 30
0.0
 10
28.04842786238319
 20
-22.07639605619359
 30
0.0
 10
28.57312330860628
 20
-22.38135104645348
 30
0.0
 10
29.13326545517982
 20
-22.66011426396801
 30
0.0
 10
29.72795183535714
 20
-22.91552910692038
 30
0.0
 10
30.14198144099355
 20
-23.06033420067275
 30
0.0
 10
30.35270573898543
 20
-23.13403412770988
 30
0.0
  0
LINE
  5
EA
330
1F
100
AcDbEntity
  8
0
  6
Continuous
 62
     7
370
    25
100
AcDbLine
 10
8.7489509116
 20
13.9836930765
 30
0.0
 11
8.7489509116
 21
8.3610851037
 31
0.0
  0
LINE
  5
EB
330
1F
100
AcDbEntity
  8
0
  6
Continuous
 62
     7
370
    25
100
AcDbLine
 10
8.7489509116
 20
8.3610851037
 30
0.0
 11
18.0414362562
 21
8.3610851037
 31
0.0
  0
LINE
  5
EC
330
1F
100
AcDbEntity
  8
0
  6
Continuous
 62
     7
370
    25
100
AcDbLine
 10
18.0414362562
 20
8.3610851037
 30
0.0
 11
18.0414362562
 21
23.7822497996
 31
0.0
  0
LINE
  5
ED
330
1F
100
AcDbEntity
  8
0
  6
Continuous
 62
     7
370
    25
100
AcDbLine
 10
15.0607139242
 20
23.7822497996
 30
0.0
 11
18.0414362562
 21
23.7822497996
 31
0.0
  0
LINE
  5
EE
330
1F
100
AcDbEntity
  8
0
  6
Continuous
 62
     7
370
    25
100
AcDbLine
 10
18.0414362562
 20
-13.3354774077
 30
0.0
 11
18.0414362562
 21
2.6691629123
 31
0.0
  0
LINE
  5
EF
330
1F
100
AcDbEntity
  8
0
  6
Continuous
 62
     7
370
    25
100
AcDbLine
 10
8.7489509116
 20
2.6691629123
 30
0.0
 11
18.0414362562
 21
2.6691629123
 31
0.0
  0
LINE
  5
F0
330
1F
100
AcDbEntity
  8
0
  6
Continuous
 62
     7
370
    25
100
AcDbLine
 10
8.7489509116
 20
2.6691629123
 30
0.0
 11
8.7489509116
 21
-23.1340341307
 31
0.0
  0
LINE
  5
F1
330
1F
100
AcDbEntity
  8
0
  6
Continuous
 62
     7
370
    25
100
AcDbLine
 10
11.7296732435
 20
-23.1340341307
 30
0.0
 11
8.7489509116
 21
-23.1340341307
 31
0.0
  0
LINE
  5
F2
330
1F
100
AcDbEntity
  8
0
  6
Continuous
 62
     7
370
    25
100
AcDbLine
 10
15.0607139161
 20
29.4741719908
 30
0.0
 11
18.0414362562
 21
29.4741719908
 31
0.0
  0
LINE
  5
F3
330
1F
100
AcDbEntity
  8
0
  6
Continuous
 62
     7
370
    25
100
AcDbLine
 10
18.0414362562
 20
29.4741719908
 30
0.0
 11
18.0414362562
 21
41.7651351382
 31
0.0
  0
LINE
  5
F4
330
1F
100
AcDbEntity
  8
0
  6
Continuous
 62
     7
370
    25
100
AcDbLine
 10
8.7489509118
 20
39.2727287067
 30
0.0
 11
8.7489509116
 21
44.6461173368
 31
0.0
  0
LINE
  5
F5
330
1F
100
AcDbEntity
  8
0
  6
Continuous
 62
     7
370
    25
100
AcDbLine
 10
30.3527057471
 20
-28.825956319
 30
0.0
 11
35.197786544
 21
-28.825956319
 31
0.0
  0
LINE
  5
F6
330
1F
100
AcDbEntity
  8
0
  6
Continuous
 62
     7
370
    25
100
AcDbLine
 10
-39.6198465732
 20
2.6691629095
 30
0.0
 11
-45.416907696
 21
2.6691629095
 31
0.0
  0
LINE
  5
F7
330
1F
100
AcDbEntity
  8
0
  6
Continuous
 62
     7
370
    25
100
AcDbLine
 10
-33.3080835689
 20
-23.1340341307
 30
0.0
 11
-39.1744355434
 21
-23.1340341307
 31
0.0
  0
LINE
  5
F8
330
1F
100
AcDbEntity
  8
0
  6
Continuous
 62
     7
370
    25
100
AcDbLine
 10
-33.3080835689
 20
-7.1293938065
 30
0.0
 11
-33.3080835689
 21
-23.1340341307
 31
0.0
  0
LINE
  5
F9
330
1F
100
AcDbEntity
  8
0
  6
Continuous
 62
     7
370
    25
100
AcDbLine
 10
-33.3080835687
 20
18.1596418238
 30
0.0
 11
-33.3080835688
 21
23.7822497967
 31
0.0
  0
LINE
  5
FA
330
1F
100
AcDbEntity
  8
0
  6
Continuous
 62
     7
370
    25
100
AcDbLine
 10
-33.3080835688
 20
23.7822497967
 30
0.0
 11
-38.7843335628
 21
23.7822497967
 31
0.0
  0
LINE
  5
FB
330
1F
100
AcDbEntity
  8
0
  6
Continuous
 62
     7
370
    25
100
AcDbLine
 10
-39.6198465814
 20
8.3610851007
 30
0.0
 11
-44.7203778074
 21
8.3610851007
 31
0.0
  0
LINE
  5
FC
330
1F
100
AcDbEntity
  8
0
  6
Continuous
 62
     7
370
    25
100
AcDbLine
 10
56.2097682845
 20
65.0
 30
0.0
 11
49.8668736876
 21
58.6571054031
 31
0.0
  0
LINE
  5
FD
330
1F
100
AcDbEntity
  8
0
  6
Continuous
 62
     7
370
    25
100
AcDbLine
 10
43.5239790906
 20
65.0
 30
0.0
 11
56.2097682845
 21
65.0
 31
0.0
  0
LINE
  5
FE
330
1F
100
AcDbEntity
  8
0
  6
Continuous
 62
     7
370
    25
100
AcDbLine
 10
49.8668736876
 20
58.6571054031
 30
0.0
 11
43.5239790906
 21
65.0
 31
0.0
  0
LINE
  5
FF
330
1F
100
AcDbEntity
  8
0
  6
Continuous
 62
     7
370
    25
100
AcDbLine
 10
65.0
 20
43.5239790906
 30
0.0
 11
65.0
 21
56.2097682845
 31
0.0
  0
LINE
  5
100
330
1F
100
AcDbEntity
  8
0
  6
Continuous
 62
     7
370
    25
100
AcDbLine
 10
65.0
 20
56.2097682845
 30
0.0
 11
58.6571054031
 21
49.8668736876
 31
0.0
  0
LINE
  5
101
330
1F
100
AcDbEntity
  8
0
  6
Continuous
 62
     7
370
    25
100
AcDbLine
 10
58.6571054031
 20
49.8668736876
 30
0.0
 11
65.0
 21
43.5239790906
 31
0.0
  0
LINE
  5
102
330
1F
100
AcDbEntity
  8
0
  6
Continuous
 62
     7
370
    25
100
AcDbLine
 10
65.0
 20
-56.2097682845
 30
0.0
 11
58.6571054031
 21
-49.8668736876
 31
0.0
  0
LINE
  5
103
330
1F
100
AcDbEntity
  8
0
  6
Continuous
 62
     7
370
    25
100
AcDbLine
 10
65.0
 20
-43.5239790906
 30
0.0
 11
65.0
 21
-56.2097682845
 31
0.0
  0
LINE
  5
104
330
1F
100
AcDbEntity
  8
0
  6
Continuous
 62
     7
370
    25
100
AcDbLine
 10
58.6571054031
 20
-49.8668736876
 30
0.0
 11
65.0
 21
-43.5239790906
 31
0.0
  0
LINE
  5
105
330
1F
100
AcDbEntity
  8
0
  6
Continuous
 62
     7
370
    25
100
AcDbLine
 10
43.5239790906
 20
-65.0
 30
0.0
 11
56.2097682845
 21
-65.0
 31
0.0
  0
LINE
  5
106
330
1F
100
AcDbEntity
  8
0
  6
Continuous
 62
     7
370
    25
100
AcDbLine
 10
56.2097682845
 20
-65.0
 30
0.0
 11
49.8668736876
 21
-58.6571054031
 31
0.0
  0
LINE
  5
107
330
1F
100
AcDbEntity
  8
0
  6
Continuous
 62
     7
370
    25
100
AcDbLine
 10
49.8668736876
 20
-58.6571054031
 30
0.0
 11
43.5239790906
 21
-65.0
 31
0.0
  0
LINE
  5
108
330
1F
100
AcDbEntity
  8
0
  6
Continuous
 62
     7
370
    25
100
AcDbLine
 10
-56.2097682845
 20
-65.0
 30
0.0
 11
-49.8668736876
 21
-58.6571054031
 31
0.0
  0
LINE
  5
109
330
1F
100
AcDbEntity
  8
0
  6
Continuous
 62
     7
370
    25
100
AcDbLine
 10
-43.5239790906
 20
-65.0
 30
0.0
 11
-56.2097682845
 21
-65.0
 31
0.0
  0
LINE
  5
10A
330
1F
100
AcDbEntity
  8
0
  6
Continuous
 62
     7
370
    25
100
AcDbLine
 10
-49.8668736876
 20
-58.6571054031
 30
0.0
 11
-43.5239790906
 21
-65.0
 31
0.0
  0
LINE
  5
10B
330
1F
100
AcDbEntity
  8
0
  6
Continuous
 62
     7
370
    25
100
AcDbLine
 10
-65.0
 20
-43.5239790906
 30
0.0
 11
-65.0
 21
-56.2097682845
 31
0.0
  0
LINE
  5
10C
330
1F
100
AcDbEntity
  8
0
  6
Continuous
 62
     7
370
    25
100
AcDbLine
 10
-65.0
 20
-56.2097682845
 30
0.0
 11
-58.6571054031
 21
-49.8668736876
 31
0.0
  0
LINE
  5
10D
330
1F
100
AcDbEntity
  8
0
  6
Continuous
 62
     7
370
    25
100
AcDbLine
 10
-58.6571054031
 20
-49.8668736876
 30
0.0
 11
-65.0
 21
-43.5239790906
 31
0.0
  0
LINE
  5
10E
330
1F
100
AcDbEntity
  8
0
  6
Continuous
 62
     7
370
    25
100
AcDbLine
 10
-43.5239790906
 20
65.0
 30
0.0
 11
-56.2097682845
 21
65.0
 31
0.0
  0
LINE
  5
10F
330
1F
100
AcDbEntity
  8
0
  6
Continuous
 62
     7
370
    25
100
AcDbLine
 10
-56.2097682845
 20
65.0
 30
0.0
 11
-49.8668736876
 21
58.6571054031
 31
0.0
  0
LINE
  5
110
330
1F
100
AcDbEntity
  8
0
  6
Continuous
 62
     7
370
    25
100
AcDbLine
 10
-49.8668736876
 20
58.6571054031
 30
0.0
 11
-43.5239790906
 21
65.0
 31
0.0
  0
LINE
  5
111
330
1F
100
AcDbEntity
  8
0
  6
Continuous
 62
     7
370
    25
100
AcDbLine
 10
75.0
 20
75.0
 30
0.0
 11
-75.0
 21
75.0
 31
0.0
  0
LINE
  5
112
330
1F
100
AcDbEntity
  8
0
  6
Continuous
 62
     7
370
    25
100
AcDbLine
 10
75.0
 20
-75.0
 30
0.0
 11
75.0
 21
75.0
 31
0.0
  0
LINE
  5
113
330
1F
100
AcDbEntity
  8
0
  6
Continuous
 62
     7
370
    25
100
AcDbLine
 10
-75.0
 20
-75.0
 30
0.0
 11
75.0
 21
-75.0
 31
0.0
  0
LINE
  5
114
330
1F
100
AcDbEntity
  8
0
  6
Continuous
 62
     7
370
    25
100
AcDbLine
 10
-75.0
 20
75.0
 30
0.0
 11
-75.0
 21
-75.0
 31
0.0
  0
LINE
  5
115
330
1F
100
AcDbEntity
  8
0
  6
Continuous
 62
     7
370
    25
100
AcDbLine
 10
-65.0
 20
56.2097682845
 30
0.0
 11
-58.6571054031
 21
49.8668736876
 31
0.0
  0
LINE
  5
116
330
1F
100
AcDbEntity
  8
0
  6
Continuous
 62
     7
370
    25
100
AcDbLine
 10
-65.0
 20
43.5239790906
 30
0.0
 11
-65.0
 21
56.2097682845
 31
0.0
  0
LINE
  5
117
330
1F
100
AcDbEntity
  8
0
  6
Continuous
 62
     7
370
    25
100
AcDbLine
 10
-58.6571054031
 20
49.8668736876
 30
0.0
 11
-65.0
 21
43.5239790906
 31
0.0
  0
LINE
  5
118
330
1F
100
AcDbEntity
  8
0
  6
Continuous
 62
     7
370
    25
100
AcDbLine
 10
-49.5387781719
 20
40.7485464564
 30
0.0
 11
-46.5932551129
 21
37.8030233974
 31
0.0
  0
LINE
  5
119
330
1F
100
AcDbEntity
  8
0
  6
Continuous
 62
     7
370
    25
100
AcDbLine
 10
-65.0
 20
25.2873246283
 30
0.0
 11
-49.5387781719
 21
40.7485464564
 31
0.0
  0
LINE
  5
11A
330
1F
100
AcDbEntity
  8
0
  6
Continuous
 62
     7
370
    25
100
AcDbLine
 10
-65.0
 20
-25.2873246283
 30
0.0
 11
-65.0
 21
25.2873246283
 31
0.0
  0
LINE
  5
11B
330
1F
100
AcDbEntity
  8
0
  6
Continuous
 62
     7
370
    25
100
AcDbLine
 10
-65.0
 20
-25.2873246283
 30
0.0
 11
-49.5387781719
 21
-40.7485464564
 31
0.0
  0
LINE
  5
11C
330
1F
100
AcDbEntity
  8
0
  6
Continuous
 62
     7
370
    25
100
AcDbLine
 10
-49.5387781719
 20
-40.7485464564
 30
0.0
 11
-46.5932551129
 21
-37.8030233974
 31
0.0
  0
LINE
  5
11D
330
1F
100
AcDbEntity
  8
0
  6
Continuous
 62
     7
370
    25
100
AcDbLine
 10
25.2873246283
 20
-65.0
 30
0.0
 11
-25.2873246283
 21
-65.0
 31
0.0
  0
LINE
  5
11E
330
1F
100
AcDbEntity
  8
0
  6
Continuous
 62
     7
370
    25
100
AcDbLine
 10
25.2873246283
 20
-65.0
 30
0.0
 11
40.7485464564
 21
-49.5387781719
 31
0.0
  0
LINE
  5
11F
330
1F
100
AcDbEntity
  8
0
  6
Continuous
 62
     7
370
    25
100
AcDbLine
 10
40.7485464564
 20
-49.5387781719
 30
0.0
 11
37.8030233974
 21
-46.5932551129
 31
0.0
  0
LINE
  5
120
330
1F
100
AcDbEntity
  8
0
  6
Continuous
 62
     7
370
    25
100
AcDbLine
 10
-40.7485464564
 20
-49.5387781719
 30
0.0
 11
-37.8030233974
 21
-46.5932551129
 31
0.0
  0
LINE
  5
121
330
1F
100
AcDbEntity
  8
0
  6
Continuous
 62
     7
370
    25
100
AcDbLine
 10
-25.2873246283
 20
-65.0
 30
0.0
 11
-40.7485464564
 21
-49.5387781719
 31
0.0
  0
LINE
  5
122
330
1F
100
AcDbEntity
  8
0
  6
Continuous
 62
     7
370
    25
100
AcDbLine
 10
65.0
 20
25.2873246283
 30
0.0
 11
65.0
 21
-25.2873246283
 31
0.0
  0
LINE
  5
123
330
1F
100
AcDbEntity
  8
0
  6
Continuous
 62
     7
370
    25
100
AcDbLine
 10
65.0
 20
25.2873246283
 30
0.0
 11
49.5387781719
 21
40.7485464564
 31
0.0
  0
LINE
  5
124
330
1F
100
AcDbEntity
  8
0
  6
Continuous
 62
     7
370
    25
100
AcDbLine
 10
49.5387781719
 20
40.7485464564
 30
0.0
 11
46.5932551129
 21
37.8030233974
 31
0.0
  0
LINE
  5
125
330
1F
100
AcDbEntity
  8
0
  6
Continuous
 62
     7
370
    25
100
AcDbLine
 10
49.5387781719
 20
-40.7485464564
 30
0.0
 11
46.5932551129
 21
-37.8030233974
 31
0.0
  0
LINE
  5
126
330
1F
100
AcDbEntity
  8
0
  6
Continuous
 62
     7
370
    25
100
AcDbLine
 10
65.0
 20
-25.2873246283
 30
0.0
 11
49.5387781719
 21
-40.7485464564
 31
0.0
  0
LINE
  5
127
330
1F
100
AcDbEntity
  8
0
  6
Continuous
 62
     7
370
    25
100
AcDbLine
 10
25.2873246283
 20
65.0
 30
0.0
 11
40.7485464564
 21
49.5387781719
 31
0.0
  0
LINE
  5
128
330
1F
100
AcDbEntity
  8
0
  6
Continuous
 62
     7
370
    25
100
AcDbLine
 10
25.2873246283
 20
65.0
 30
0.0
 11
-25.2873246283
 21
65.0
 31
0.0
  0
LINE
  5
129
330
1F
100
AcDbEntity
  8
0
  6
Continuous
 62
     7
370
    25
100
AcDbLine
 10
-25.2873246283
 20
65.0
 30
0.0
 11
-40.7485464564
 21
49.5387781719
 31
0.0
  0
LINE
  5
12A
330
1F
100
AcDbEntity
  8
0
  6
Continuous
 62
     7
370
    25
100
AcDbLine
 10
-40.7485464564
 20
49.5387781719
 30
0.0
 11
-37.8030233974
 21
46.5932551129
 31
0.0
  0
LINE
  5
12B
330
1F
100
AcDbEntity
  8
0
  6
Continuous
 62
     7
370
    25
100
AcDbLine
 10
40.7485464564
 20
49.5387781719
 30
0.0
 11
37.8030233974
 21
46.5932551129
 31
0.0
  0
LINE
  5
12C
330
1F
100
AcDbEntity
  8
0
  6
Continuous
 62
     7
370
    25
100
AcDbLine
 10
-3.5623185713
 20
23.7822497967
 30
0.0
 11
-27.3085770903
 21
23.7822497967
 31
0.0
  0
LINE
  5
12D
330
1F
100
AcDbEntity
  8
0
  6
Continuous
 62
     7
370
    25
100
AcDbLine
 10
-27.3085770902
 20
18.1596418196
 30
0.0
 11
-27.3085770903
 21
23.7822497967
 31
0.0
  0
LINE
  5
12E
330
1F
100
AcDbEntity
  8
0
  6
Continuous
 62
     7
370
    25
100
AcDbLine
 10
-20.9968140859
 20
8.3610851037
 30
0.0
 11
2.7494444331
 21
8.3610851037
 31
0.0
  0
LINE
  5
12F
330
1F
100
AcDbEntity
  8
0
  6
Continuous
 62
     7
370
    25
100
AcDbLine
 10
2.7494444331
 20
13.9836930806
 30
0.0
 11
2.7494444331
 21
8.3610851037
 31
0.0
  0
LINE
  5
130
330
1F
100
AcDbEntity
  8
0
  6
Continuous
 62
     7
370
    25
100
AcDbLine
 10
2.7494444331
 20
-28.8259563219
 30
0.0
 11
2.7494444331
 21
-45.4121183233
 31
0.0
  0
LINE
  5
131
330
1F
100
AcDbEntity
  8
0
  6
Continuous
 62
     7
370
    25
100
AcDbLine
 10
2.7494444331
 20
-28.8259563219
 30
0.0
 11
-27.5868751004
 21
-28.8259563219
 31
0.0
  0
LINE
  5
132
330
1F
100
AcDbEntity
  8
0
  6
Continuous
 62
     7
370
    25
100
AcDbLine
 10
-27.5868751004
 20
-28.8259563219
 30
0.0
 11
-27.6802514612
 21
-36.1057282761
 31
0.0
  0
LINE
  5
133
330
1F
100
AcDbEntity
  8
0
  6
Continuous
 62
     7
370
    25
100
AcDbLine
 10
-33.3080835689
 20
-28.8259563219
 30
0.0
 11
-33.3080835689
 21
-30.9901839987
 31
0.0
  0
LINE
  5
134
330
1F
100
AcDbEntity
  8
0
  6
Continuous
 62
     7
370
    25
100
AcDbLine
 10
-33.3080835689
 20
-28.8259563219
 30
0.0
 11
-35.1977865416
 21
-28.8259563219
 31
0.0
  0
LINE
  5
135
330
1F
100
AcDbEntity
  8
0
  6
Continuous
 62
     7
370
    25
100
AcDbLine
 10
11.7296732516
 20
-28.8259563219
 30
0.0
 11
8.7489509116
 21
-28.8259563219
 31
0.0
  0
LINE
  5
136
330
1F
100
AcDbEntity
  8
0
  6
Continuous
 62
     7
370
    25
100
AcDbLine
 10
8.7489509116
 20
-28.8259563219
 30
0.0
 11
8.7489509116
 21
-44.6461173368
 31
0.0
  0
LINE
  5
137
330
1F
100
AcDbEntity
  8
0
  6
Continuous
 62
     7
370
    25
100
AcDbLine
 10
18.0414362559
 20
-38.6245130379
 30
0.0
 11
18.0414362559
 21
-41.7651351384
 31
0.0
  0
LINE
  5
138
330
1F
100
AcDbEntity
  8
0
  6
Continuous
 62
     7
370
    25
100
AcDbLine
 10
-33.3080835688
 20
29.4741719879
 30
0.0
 11
-34.6567904014
 21
29.4741719879
 31
0.0
  0
LINE
  5
139
330
1F
100
AcDbEntity
  8
0
  6
Continuous
 62
     7
370
    25
100
AcDbLine
 10
-33.3080835688
 20
29.4741719879
 30
0.0
 11
-33.3080835689
 21
30.9901839987
 31
0.0
  0
LINE
  5
13A
330
1F
100
AcDbEntity
  8
0
  6
Continuous
 62
     7
370
    25
100
AcDbLine
 10
2.7494444333
 20
39.272728711
 30
0.0
 11
2.7494444331
 21
45.4121183233
 31
0.0
  0
LINE
  5
13B
330
1F
100
AcDbEntity
  8
0
  6
Continuous
 62
     7
370
    25
100
AcDbLine
 10
-27.3085770903
 20
29.4741719879
 30
0.0
 11
-27.3085770904
 21
36.3876565967
 31
0.0
  0
LINE
  5
13C
330
1F
100
AcDbEntity
  8
0
  6
Continuous
 62
     7
370
    25
100
AcDbLine
 10
-3.5623185794
 20
29.4741719879
 30
0.0
 11
-27.3085770903
 21
29.4741719879
 31
0.0
  0
LINE
  5
13D
330
1F
100
AcDbEntity
  8
0
  6
Continuous
 62
     7
370
    25
100
AcDbLine
 10
24.0409427345
 20
29.4741719908
 30
0.0
 11
24.0409427344
 21
38.6245130421
 31
0.0
  0
LINE
  5
13E
330
1F
100
AcDbEntity
  8
0
  6
Continuous
 62
     7
370
    25
100
AcDbLine
 10
24.0409427345
 20
29.4741719908
 30
0.0
 11
34.656790399
 21
29.4741719908
 31
0.0
  0
LINE
  5
13F
330
1F
100
AcDbEntity
  8
0
  6
Continuous
 62
     7
370
    25
100
AcDbLine
 10
24.0409427345
 20
23.7822497996
 30
0.0
 11
38.784333561
 21
23.7822497996
 31
0.0
  0
LINE
  5
140
330
1F
100
AcDbEntity
  8
0
  6
Continuous
 62
     7
370
    25
100
AcDbLine
 10
24.0409427345
 20
8.3610851037
 30
0.0
 11
24.0409427345
 21
23.7822497996
 31
0.0
  0
LINE
  5
141
330
1F
100
AcDbEntity
  8
0
  6
Continuous
 62
     7
370
    25
100
AcDbLine
 10
24.0409427345
 20
8.3610851037
 30
0.0
 11
44.7203778069
 21
8.3610851037
 31
0.0
  0
LINE
  5
142
330
1F
100
AcDbEntity
  8
0
  6
Continuous
 62
     7
370
    25
100
AcDbLine
 10
-27.3085770904
 20
-7.1293938105
 30
0.0
 11
-27.5138658107
 21
-23.1340341307
 31
0.0
  0
LINE
  5
143
330
1F
100
AcDbEntity
  8
0
  6
Continuous
 62
     7
370
    25
100
AcDbLine
 10
2.7494444331
 20
-23.1340341307
 30
0.0
 11
-27.5138658107
 21
-23.1340341307
 31
0.0
  0
LINE
  5
144
330
1F
100
AcDbEntity
  8
0
  6
Continuous
 62
     7
370
    25
100
AcDbLine
 10
2.7494444331
 20
2.6691629123
 30
0.0
 11
2.7494444331
 21
-23.1340341307
 31
0.0
  0
LINE
  5
145
330
1F
100
AcDbEntity
  8
0
  6
Continuous
 62
     7
370
    25
100
AcDbLine
 10
-20.9968140777
 20
2.6691629123
 30
0.0
 11
2.7494444331
 21
2.6691629123
 31
0.0
  0
LINE
  5
146
330
1F
100
AcDbEntity
  8
0
  6
Continuous
 62
     7
370
    25
100
AcDbLine
 10
30.352705739
 20
-23.1340341277
 30
0.0
 11
39.1744355451
 21
-23.1340341277
 31
0.0
  0
LINE
  5
147
330
1F
100
AcDbEntity
  8
0
  6
Continuous
 62
     7
370
    25
100
AcDbLine
 10
24.0409427345
 20
2.6691629123
 30
0.0
 11
45.4169076958
 21
2.6691629123
 31
0.0
  0
LINE
  5
148
330
1F
100
AcDbEntity
  8
0
  6
Continuous
 62
     7
370
    25
100
AcDbLine
 10
24.0409427346
 20
-13.3354774118
 30
0.0
 11
24.0409427345
 21
2.6691629123
 31
0.0
  0
ARC
  5
149
330
1F
100
AcDbEntity
  8
0
  6
Continuous
 62
     7
370
    25
100
AcDbCircle
 10
0.0
 20
0.0
 30
0.0
 40
45.49527376883618
100
AcDbArc
 50
66.6369297018
 51
78.9126907094
  0
ARC
  5
14A
330
1F
100
AcDbEntity
  8
0
  6
Continuous
 62
     7
370
    25
100
AcDbCircle
 10
0.0
 20
0.0
 30
0.0
 40
45.4952737688367
100
AcDbArc
 50
301.8992524001
 51
320.6835281728
  0
ARC
  5
14B
330
1F
100
AcDbEntity
  8
0
  6
Continuous
 62
     7
370
    25
100
AcDbCircle
 10
0.0
 20
0.0
 30
0.0
 40
45.49527376883648
100
AcDbArc
 50
176.6365816433
 51
210.5635098773
  0
ARC
  5
14C
330
1F
100
AcDbEntity
  8
0
  6
Continuous
 62
     7
370
    25
100
AcDbCircle
 10
0.0
 20
0.0
 30
0.0
 40
45.49527376883644
100
AcDbArc
 50
148.4837001691
 51
169.4100344713
  0
ARC
  5
14D
330
1F
100
AcDbEntity
  8
0
  6
Continuous
 62
     7
370
    25
100
AcDbCircle
 10
0.0
 20
0.0
 30
0.0
 40
59.99999999999991
100
AcDbArc
 50
140.9461596864
 51
219.0538403136
  0
ARC
  5
14E
330
1F
100
AcDbEntity
  8
0
  6
Continuous
 62
     7
370
    25
100
AcDbCircle
 10
0.0
 20
0.0
 30
0.0
 40
59.99999999999999
100
AcDbArc
 50
230.9461596864
 51
309.0538403136
  0
ARC
  5
14F
330
1F
100
AcDbEntity
  8
0
  6
Continuous
 62
     7
370
    25
100
AcDbCircle
 10
0.0
 20
0.0
 30
0.0
 40
59.99999999999985
100
AcDbArc
 50
320.9461596864
 51
39.0538403136
  0
ARC
  5
150
330
1F
100
AcDbEntity
  8
0
  6
Continuous
 62
     7
370
    25
100
AcDbCircle
 10
0.0
 20
0.0
 30
0.0
 40
60.00000000000011
100
AcDbArc
 50
50.9461596864
 51
129.0538403136
  0
ARC
  5
151
330
1F
100
AcDbEntity
  8
0
  6
Continuous
 62
     7
370
    25
100
AcDbCircle
 10
0.0
 20
0.0
 30
0.0
 40
45.49527376883642
100
AcDbArc
 50
232.5246268794
 51
273.4647029676
  0
ARC
  5
152
330
1F
100
AcDbEntity
  8
0
  6
Continuous
 62
     7
370
    25
100
AcDbCircle
 10
0.0
 20
0.0
 30
0.0
 40
45.49527376882832
100
AcDbArc
 50
219.3164718319
 51
222.9354283784
  0
ARC
  5
153
330
1F
100
AcDbEntity
  8
0
  6
Continuous
 62
     7
370
    25
100
AcDbCircle
 10
0.0
 20
0.0
 30
0.0
 40
45.49527376883813
100
AcDbArc
 50
281.0873092906
 51
293.3630702978
  0
ARC
  5
154
330
1F
100
AcDbEntity
  8
0
  6
Continuous
 62
     7
370
    25
100
AcDbCircle
 10
0.0
 20
0.0
 30
0.0
 40
45.4952737688583
100
AcDbArc
 50
137.0645716217
 51
139.6202061204
  0
ARC
  5
155
330
1F
100
AcDbEntity
  8
0
  6
Continuous
 62
     7
370
    25
100
AcDbCircle
 10
0.0
 20
0.0
 30
0.0
 40
45.49527376883638
100
AcDbArc
 50
86.5352970324
 51
126.8878661018
  0
ARC
  5
156
330
1F
100
AcDbEntity
  8
0
  6
Continuous
 62
     7
370
    25
100
AcDbCircle
 10
0.0
 20
0.0
 30
0.0
 40
45.49527376883643
100
AcDbArc
 50
40.3797938844
 51
58.1007475999
  0
ARC
  5
157
330
1F
100
AcDbEntity
  8
0
  6
Continuous
 62
     7
370
    25
100
AcDbCircle
 10
0.0
 20
0.0
 30
0.0
 40
45.49527376883665
100
AcDbArc
 50
10.5899655325
 51
31.5162998351
  0
ARC
  5
158
330
1F
100
AcDbEntity
  8
0
  6
Continuous
 62
     7
370
    25
100
AcDbCircle
 10
0.0
 20
0.0
 30
0.0
 40
45.49527376883677
100
AcDbArc
 50
329.436490127
 51
3.3634183603
  0
MTEXT
  5
15A
330
1F
100
AcDbEntity
  8
0
  6
Continuous
 62
     7
100
AcDbMText
 10
-75.0
 20
-76.0195663917
 30
0.0
 40
4.83362
 41
0.0
 71
     1
 72
     1
  1
SOLIDWORKS Maker Product.
  7
SLDTEXTSTYLE0
 73
     1
 44
1.0
  0
MTEXT
  5
15B
330
1F
100
AcDbEntity
  8
0
  6
Continuous
 62
     7
100
AcDbMText
 10
-75.0
 20
-83.2699963917
 30
0.0
 40
4.83362
 41
0.0
 71
     1
 72
     1
  1
For Personal Use Only.
  7
SLDTEXTSTYLE0
 73
     1
 44
1.0
  0
ENDSEC
  0
SECTION
  2
OBJECTS
  0
DICTIONARY
  5
C
330
0
100
AcDbDictionary
281
     1
  3
ACAD_GROUP
350
D
  3
ACAD_LAYOUT
350
1A
  3
ACAD_MLINESTYLE
350
17
  3
ACAD_PLOTSETTINGS
350
19
  3
ACAD_PLOTSTYLENAME
350
E
  3
ACAD_SCALELIST
350
47
  3
DWGPROPS
350
15C
  0
DICTIONARY
  5
D
102
{ACAD_REACTORS
330
C
102
}
330
C
100
AcDbDictionary
281
     1
  0
DICTIONARY
  5
1A
102
{ACAD_REACTORS
330
C
102
}
330
C
100
AcDbDictionary
281
     1
  3
Layout1
350
1E
  3
Layout2
350
26
  3
Model
350
22
  0
DICTIONARY
  5
17
102
{ACAD_REACTORS
330
C
102
}
330
C
100
AcDbDictionary
281
     1
  3
Standard
350
18
  0
DICTIONARY
  5
19
102
{ACAD_REACTORS
330
C
102
}
330
C
100
AcDbDictionary
281
     1
  0
ACDBDICTIONARYWDFLT
  5
E
102
{ACAD_REACTORS
330
C
102
}
330
C
100
AcDbDictionary
281
     1
  3
Normal
350
F
100
AcDbDictionaryWithDefault
340
F
  0
DICTIONARY
  5
47
102
{ACAD_REACTORS
330
C
102
}
330
C
100
AcDbDictionary
281
     1
  3
A0
350
48
  3
A1
350
49
  3
A2
350
4A
  3
A3
350
4B
  3
A4
350
4C
  3
A5
350
4D
  3
A6
350
4E
  3
A7
350
4F
  3
A8
350
50
  3
A9
350
51
  3
B0
350
52
  3
B1
350
53
  3
B2
350
54
  3
B3
350
55
  3
B4
350
56
  3
B5
350
57
  3
B6
350
58
  0
XRECORD
  5
15C
102
{ACAD_REACTORS
330
C
102
}
330
C
100
AcDbXrecord
280
     1
  1
DWGPROPS COOKIE
  2

  3

  4

  6

  7

  8
Caden
  9

300
=
301
=
302
=
303
=
304
=
305
=
306
=
307
=
308
=
309
=
 40
0.0
 41
2460289.864253542
 42
2460289.864271725
  1

 90
        0
  0
LAYOUT
  5
1E
102
{ACAD_REACTORS
330
1A
102
}
330
1A
100
AcDbPlotSettings
  1

  2
none_device
  4

  6

 40
0.0
 41
0.0
 42
0.0
 43
0.0
 44
0.0
 45
0.0
 46
0.0
 47
0.0
 48
0.0
 49
0.0
140
0.0
141
0.0
142
1.0
143
1.0
 70
   688
 72
     1
 73
     0
 74
     5
  7

 75
    16
147
1.0
148
0.0
149
0.0
100
AcDbLayout
  1
Layout1
 70
     1
 71
     1
 10
0.0
 20
0.0
 11
420.0
 21
297.0
 12
0.0
 22
0.0
 32
0.0
 14
1.0000000000E+20
 24
1.0000000000E+20
 34
1.0000000000E+20
 15
-1.0000000000E+20
 25
-1.0000000000E+20
 35
-1.0000000000E+20
146
0.0
 13
0.0
 23
0.0
 33
0.0
 16
1.0
 26
0.0
 36
0.0
 17
0.0
 27
1.0
 37
0.0
 76
     0
330
1B
  0
LAYOUT
  5
26
102
{ACAD_REACTORS
330
1A
102
}
330
1A
100
AcDbPlotSettings
  1

  2
none_device
  4

  6

 40
0.0
 41
0.0
 42
0.0
 43
0.0
 44
0.0
 45
0.0
 46
0.0
 47
0.0
 48
0.0
 49
0.0
140
0.0
141
0.0
142
1.0
143
1.0
 70
   688
 72
     1
 73
     0
 74
     5
  7

 75
    16
147
1.0
148
0.0
149
0.0
100
AcDbLayout
  1
Layout2
 70
     1
 71
     2
 10
0.0
 20
0.0
 11
0.0
 21
0.0
 12
0.0
 22
0.0
 32
0.0
 14
0.0
 24
0.0
 34
0.0
 15
0.0
 25
0.0
 35
0.0
146
0.0
 13
0.0
 23
0.0
 33
0.0
 16
1.0
 26
0.0
 36
0.0
 17
0.0
 27
1.0
 37
0.0
 76
     0
330
23
  0
LAYOUT
  5
22
102
{ACAD_REACTORS
330
1A
102
}
330
1A
100
AcDbPlotSettings
  1

  2
none_device
  4
ANSI_A_(11.00_x_8.50_Inches)
  6

 40
6.35
 41
19.05
 42
6.35000508
 43
19.05000254
 44
279.4
 45
215.9
 46
133.34999746
 47
88.89999873
 48
0.0
 49
0.0
140
0.0
141
0.0
142
0.0561
143
1.0
 70
  1696
 72
     0
 73
     0
 74
     0
  7

 75
     0
147
0.0179189148
148
-1300.4909072572
149
0.0
100
AcDbLayout
  1
Model
 70
     1
 71
     0
 10
0.0
 20
0.0
 11
420.0
 21
297.0
 12
0.0
 22
0.0
 32
0.0
 14
-75.0
 24
-75.0
 34
0.0
 15
75.0
 25
75.0
 35
0.0
146
0.0
 13
0.0
 23
0.0
 33
0.0
 16
1.0
 26
0.0
 36
0.0
 17
0.0
 27
1.0
 37
0.0
 76
     0
330
1F
331
29
  0
MLINESTYLE
  5
18
102
{ACAD_REACTORS
330
17
102
}
330
17
100
AcDbMlineStyle
  2
Standard
 70
     0
  3

 62
   256
 51
90.0
 52
90.0
 71
     2
 49
0.5
 62
   256
  6
BYLAYER
 49
-0.5
 62
   256
  6
BYLAYER
  0
ACDBPLACEHOLDER
  5
F
102
{ACAD_REACTORS
330
E
102
}
330
E
  0
SCALE
  5
48
102
{ACAD_REACTORS
330
47
102
}
330
47
100
AcDbScale
 70
     0
300
1:1
140
1.0
141
1.0
290
     1
  0
SCALE
  5
49
102
{ACAD_REACTORS
330
47
102
}
330
47
100
AcDbScale
 70
     0
300
1:2
140
1.0
141
2.0
290
     0
  0
SCALE
  5
4A
102
{ACAD_REACTORS
330
47
102
}
330
47
100
AcDbScale
 70
     0
300
1:4
140
1.0
141
4.0
290
     0
  0
SCALE
  5
4B
102
{ACAD_REACTORS
330
47
102
}
330
47
100
AcDbScale
 70
     0
300
1:5
140
1.0
141
5.0
290
     0
  0
SCALE
  5
4C
102
{ACAD_REACTORS
330
47
102
}
330
47
100
AcDbScale
 70
     0
300
1:8
140
1.0
141
8.0
290
     0
  0
SCALE
  5
4D
102
{ACAD_REACTORS
330
47
102
}
330
47
100
AcDbScale
 70
     0
300
1:10
140
1.0
141
10.0
290
     0
  0
SCALE
  5
4E
102
{ACAD_REACTORS
330
47
102
}
330
47
100
AcDbScale
 70
     0
300
1:16
140
1.0
141
16.0
290
     0
  0
SCALE
  5
4F
102
{ACAD_REACTORS
330
47
102
}
330
47
100
AcDbScale
 70
     0
300
1:20
140
1.0
141
20.0
290
     0
  0
SCALE
  5
50
102
{ACAD_REACTORS
330
47
102
}
330
47
100
AcDbScale
 70
     0
300
1:30
140
1.0
141
30.0
290
     0
  0
SCALE
  5
51
102
{ACAD_REACTORS
330
47
102
}
330
47
100
AcDbScale
 70
     0
300
1:40
140
1.0
141
40.0
290
     0
  0
SCALE
  5
52
102
{ACAD_REACTORS
330
47
102
}
330
47
100
AcDbScale
 70
     0
300
1:50
140
1.0
141
50.0
290
     0
  0
SCALE
  5
53
102
{ACAD_REACTORS
330
47
102
}
330
47
100
AcDbScale
 70
     0
300
1:100
140
1.0
141
100.0
290
     0
  0
SCALE
  5
54
102
{ACAD_REACTORS
330
47
102
}
330
47
100
AcDbScale
 70
     0
300
2:1
140
2.0
141
1.0
290
     0
  0
SCALE
  5
55
102
{ACAD_REACTORS
330
47
102
}
330
47
100
AcDbScale
 70
     0
300
4:1
140
4.0
141
1.0
290
     0
  0
SCALE
  5
56
102
{ACAD_REACTORS
330
47
102
}
330
47
100
AcDbScale
 70
     0
300
8:1
140
8.0
141
1.0
290
     0
  0
SCALE
  5
57
102
{ACAD_REACTORS
330
47
102
}
330
47
100
AcDbScale
 70
     0
300
10:1
140
10.0
141
1.0
290
     0
  0
SCALE
  5
58
102
{ACAD_REACTORS
330
47
102
}
330
47
100
AcDbScale
 70
     0
300
100:1
140
100.0
141
1.0
290
     0
  0
ENDSEC
  0
EOF
